<svg xmlns="http://www.w3.org/2000/svg" viewBox="0 0 800 636"><defs><style>.cls-1{fill:#f2b500;}.cls-2{fill:#39b500;}.cls-3{fill:#009444;}.cls-4{fill:#fff8b9;}</style></defs><title>corn-1</title><g id="_1" data-name="1"><path class="cls-1" d="M376.07,331.35a83.66,83.66,0,0,0-8.2,5.26c0-1.17-.09-2.36-.2-3.54l2.76-2.93a3,3,0,0,1,4.27-.09Z"/><path class="cls-1" d="M368.46,324.17l-3-2.83a66.6,66.6,0,0,1,1.79,8.25l1.22-1.29A3,3,0,0,0,368.46,324.17Z"/><path class="cls-1" d="M387.79,323.43l-1.81-1.7L384.18,320a3,3,0,0,0-4.27.08l-3.27,3.47a3,3,0,0,0,.17,4.26l1.81,1.71.3.29a84.24,84.24,0,0,1,9.84-4.29A3.25,3.25,0,0,0,387.79,323.43Z"/><path class="cls-1" d="M377.94,314.13l-3.1-2.92c-1.12-.93-2.59-.75-3.84.47l-3.27,3.47c-1.41,1.62-1,3.1-.25,3.86l3.1,2.92a2.93,2.93,0,0,0,4.11-.22l3.27-3.47A2.93,2.93,0,0,0,377.94,314.13Z"/><path class="cls-1" d="M369.95,306.59l-2.19-2.07c-.76-.59-2-.19-3.21,1.07l-3.27,3.47a2,2,0,0,0-.21.25c.8,1.74,1.55,3.56,2.23,5.43a3.08,3.08,0,0,0,2.89-1.06l3.27-3.47C370.57,309,370.76,307.48,369.95,306.59Z"/><path class="cls-1" d="M403.52,319.27a3,3,0,0,0-4.12.22L396.13,323a3.82,3.82,0,0,0-.26.36,86.66,86.66,0,0,1,9.81-2Z"/><path class="cls-1" d="M386.29,317.78l1.81,1.71,1.81,1.7a3,3,0,0,0,4.27-.08l3.27-3.47a3,3,0,0,0-.17-4.26l-1.81-1.7L393.66,310a3,3,0,0,0-4.27.08l-3.27,3.47A3,3,0,0,0,386.29,317.78Z"/><path class="cls-1" d="M387.42,304.08l-3.1-2.92c-1.12-.93-2.59-.75-3.84.47l-3.27,3.47c-1.41,1.62-1,3.1-.25,3.86l3.1,2.92a2.93,2.93,0,0,0,4.11-.23l3.27-3.47A3,3,0,0,0,387.42,304.08Z"/><path class="cls-1" d="M379.42,296.54l-2.19-2.06c-.76-.59-2-.19-3.21,1.07L370.75,299c-1.44,1.6-1.4,2.74-.88,3.27l2.19,2.06c.94.77,2.39.48,3.6-.7l3.27-3.47C380,298.9,380.24,297.44,379.42,296.54Z"/><path class="cls-1" d="M423.24,320.63a1.66,1.66,0,0,0-.07-1.81L421,316.76c-.95-.77-2.4-.48-3.61.71l-2.86,3A76,76,0,0,1,423.24,320.63Z"/><path class="cls-1" d="M405.62,317l3.09,2.91c1.12.94,2.6.76,3.85-.47l3.27-3.47c1.16-1.33,1.25-2.82.25-3.88L413,309.23a2.94,2.94,0,0,0-4.12.23l-3.27,3.47A2.94,2.94,0,0,0,405.62,317Z"/><path class="cls-1" d="M395.76,307.74l1.81,1.71,1.81,1.7a3,3,0,0,0,4.27-.08l3.27-3.47a3,3,0,0,0-.16-4.27l-1.81-1.7-1.81-1.71a3,3,0,0,0-4.27.09l-3.27,3.47A3,3,0,0,0,395.76,307.74Z"/><path class="cls-1" d="M396.9,294l-3.1-2.92c-1.12-.93-2.59-.75-3.85.48l-3.27,3.47c-1.32,1.52-1.08,3-.25,3.86l3.1,2.92a3,3,0,0,0,4.11-.23l3.27-3.47A3,3,0,0,0,396.9,294Z"/><path class="cls-1" d="M388.9,286.49l-2.19-2.06c-.76-.59-2-.19-3.22,1.08L380.22,289c-1.44,1.6-1.37,2.76-.88,3.27l2.19,2.06c.94.77,2.39.48,3.6-.7l3.27-3.47C389.52,288.85,389.72,287.39,388.9,286.49Z"/><path class="cls-1" d="M423.09,314.53l2.19,2.06c.76.6,2,.2,3.21-1.07l3.27-3.47c1.19-1.33,1.52-2.55.88-3.27l-2.19-2.06c-.94-.77-2.39-.49-3.6.7l-3.27,3.47C422.33,312.33,422.38,313.81,423.09,314.53Z"/><path class="cls-1" d="M415.1,307l3.09,2.91c1.12.94,2.59.76,3.85-.47l3.27-3.47c1.15-1.32,1.24-2.81.24-3.87l-3.09-2.91a2.93,2.93,0,0,0-4.12.22l-3.27,3.47A2.94,2.94,0,0,0,415.1,307Z"/><path class="cls-1" d="M405.24,297.69,407,299.4l1.81,1.7a3,3,0,0,0,4.27-.08l3.27-3.47a3,3,0,0,0-.17-4.26l-1.81-1.7-1.81-1.71a3,3,0,0,0-4.27.08l-3.27,3.47A3,3,0,0,0,405.24,297.69Z"/><path class="cls-1" d="M406.37,284l-3.1-2.92c-1.12-.93-2.59-.75-3.84.47L396.15,285c-1.41,1.62-1,3.1-.25,3.86l3.1,2.92a2.93,2.93,0,0,0,4.11-.22l3.27-3.47A2.93,2.93,0,0,0,406.37,284Z"/><path class="cls-1" d="M398.37,276.45l-2.19-2.06c-.75-.6-2-.19-3.21,1.07l-3.27,3.47c-1.44,1.6-1.4,2.74-.88,3.27l2.19,2.06c.94.77,2.39.48,3.6-.7l3.27-3.47C399,278.81,399.19,277.35,398.37,276.45Z"/><path class="cls-1" d="M432.57,304.48l2.19,2.06c.76.6,2,.2,3.22-1.07l3.27-3.47c1.19-1.33,1.52-2.55.88-3.27l-2.19-2.06c-.94-.77-2.39-.48-3.6.7l-3.27,3.47C431.8,302.29,431.86,303.77,432.57,304.48Z"/><path class="cls-1" d="M424.58,296.95l3.09,2.91c1.12.94,2.59.76,3.85-.47l3.27-3.47c1.15-1.32,1.24-2.81.24-3.87l-3.09-2.91a3,3,0,0,0-4.12.22l-3.27,3.47A2.94,2.94,0,0,0,424.58,296.95Z"/><path class="cls-1" d="M414.72,287.64l1.81,1.71,1.81,1.7a3,3,0,0,0,4.27-.08l3.27-3.47a3,3,0,0,0-.17-4.26l-1.81-1.7-1.81-1.71a3,3,0,0,0-4.27.08l-3.27,3.47A3,3,0,0,0,414.72,287.64Z"/><path class="cls-1" d="M415.85,273.95l-3.1-2.92c-1.12-.93-2.59-.75-3.84.47L405.63,275c-1.41,1.62-1,3.1-.25,3.86l3.1,2.92a2.93,2.93,0,0,0,4.11-.23l3.27-3.47A3,3,0,0,0,415.85,273.95Z"/><path class="cls-1" d="M407.85,266.41l-2.19-2.06c-.76-.59-2-.19-3.21,1.07l-3.27,3.47c-1.44,1.6-1.4,2.74-.88,3.27l2.19,2.06c.94.77,2.39.48,3.6-.7l3.27-3.47C408.47,268.76,408.67,267.3,407.85,266.41Z"/><path class="cls-1" d="M442,294.45l2.19,2.06c.76.6,2,.2,3.22-1.07l3.27-3.47c1.2-1.33,1.53-2.56.89-3.28l-2.19-2.06c-.95-.77-2.4-.48-3.61.71l-3.27,3.47C441.28,292.25,441.33,293.73,442,294.45Z"/><path class="cls-1" d="M434.05,286.91l3.09,2.91c1.12.94,2.6.76,3.85-.47l3.27-3.47c1.16-1.33,1.25-2.82.25-3.88l-3.09-2.91a2.94,2.94,0,0,0-4.12.23L434,282.79A2.94,2.94,0,0,0,434.05,286.91Z"/><path class="cls-1" d="M424.19,277.61l1.81,1.71,1.81,1.7a3,3,0,0,0,4.27-.08l3.27-3.47a3,3,0,0,0-.16-4.27l-1.81-1.7-1.81-1.71a3,3,0,0,0-4.27.09L424,273.34A3,3,0,0,0,424.19,277.61Z"/><path class="cls-1" d="M425.32,263.9l-3.1-2.92c-1.12-.93-2.59-.75-3.85.48l-3.27,3.47c-1.32,1.52-1.08,3-.25,3.86l3.1,2.92a3,3,0,0,0,4.11-.23l3.27-3.47A3,3,0,0,0,425.32,263.9Z"/><path class="cls-1" d="M417.33,256.36l-2.19-2.06c-.76-.59-2-.19-3.22,1.08l-3.27,3.47c-1.44,1.6-1.37,2.76-.88,3.27l2.19,2.06c.94.77,2.39.48,3.6-.7l3.27-3.47C417.95,258.72,418.15,257.26,417.33,256.36Z"/><path class="cls-1" d="M451.52,284.4l2.19,2.06c.76.6,2,.2,3.21-1.07l3.27-3.47c1.19-1.33,1.52-2.55.88-3.27l-2.19-2.06c-.94-.77-2.39-.49-3.6.7L452,280.76C450.75,282.2,450.81,283.68,451.52,284.4Z"/><path class="cls-1" d="M443.53,276.86l3.09,2.91c1.12.94,2.59.76,3.85-.47l3.27-3.47c1.15-1.32,1.24-2.81.24-3.87l-3.09-2.91a2.93,2.93,0,0,0-4.12.22l-3.27,3.47A2.94,2.94,0,0,0,443.53,276.86Z"/><path class="cls-1" d="M433.67,267.56l1.81,1.71,1.81,1.7a3,3,0,0,0,4.27-.08l3.27-3.47a3,3,0,0,0-.17-4.26l-1.81-1.7L441,259.75a3,3,0,0,0-4.27.08l-3.27,3.47A3,3,0,0,0,433.67,267.56Z"/><path class="cls-1" d="M434.79,253.86l-3.1-2.92c-1.12-.93-2.59-.75-3.84.47l-3.27,3.47c-1.41,1.62-1,3.1-.25,3.86l3.1,2.92a2.93,2.93,0,0,0,4.11-.22l3.27-3.47A2.93,2.93,0,0,0,434.79,253.86Z"/><path class="cls-1" d="M426.8,246.32l-2.19-2.06c-.75-.6-2-.19-3.21,1.07l-3.27,3.47c-1.44,1.6-1.4,2.74-.88,3.27l2.19,2.06c.94.77,2.39.48,3.6-.7l3.27-3.47C427.42,248.68,427.62,247.22,426.8,246.32Z"/><path class="cls-1" d="M453,266.82l3.09,2.91c1.12.94,2.6.76,3.85-.47l3.27-3.47c1.15-1.32,1.24-2.81.24-3.87L460.38,259a3,3,0,0,0-4.12.22L453,262.69A2.94,2.94,0,0,0,453,266.82Z"/><path class="cls-1" d="M443.15,257.51l1.81,1.71,1.81,1.7a3,3,0,0,0,4.27-.08l3.27-3.47a3,3,0,0,0-.17-4.26l-1.81-1.7-1.81-1.71a3,3,0,0,0-4.27.08L443,253.25A3,3,0,0,0,443.15,257.51Z"/><path class="cls-1" d="M444.27,243.81l-3.1-2.92c-1.12-.93-2.59-.75-3.84.47l-3.27,3.47c-1.41,1.62-1,3.1-.25,3.86l3.1,2.92a2.93,2.93,0,0,0,4.11-.23l3.27-3.47A3,3,0,0,0,444.27,243.81Z"/><path class="cls-1" d="M452.62,247.47l1.81,1.71,1.81,1.7a3,3,0,0,0,4.27-.08l3.27-3.47a3,3,0,0,0-.16-4.27l-1.81-1.7L460,239.66a3,3,0,0,0-4.27.09l-3.27,3.47A3,3,0,0,0,452.62,247.47Z"/><path class="cls-2" d="M429.25,331.9c-2.35-6.69-3.15-7.45-3.15-7.45s-30.41-5-58.29,16.55a44.15,44.15,0,0,1-5.22,18.55c-.12.23-.26.45-.39.66-5.84,10.15-19,19.9-27.69,25.58A51.71,51.71,0,0,1,346.9,384c20-.57,37.27-11.27,55.87-25.27,9.46-7.14,29.39-11.48,29.39-11.48A68,68,0,0,0,429.25,331.9Z"/><path class="cls-3" d="M418.41,354.64c-4.55,1.64-12.87,5.8-12.87,5.8l1,26.68,25-36.6S423.86,352.67,418.41,354.64Z"/><path class="cls-2" d="M359.53,357.9c11.77-21.69-.61-47.56-9.79-62-.31,1.91-2.92,16.75-7.93,24.29-10.54,15.81-18.43,30.42-17.94,46.72a40.43,40.43,0,0,1-3.35,17.78l3.69,3.48s.18,0,.54-.09l-.18-.32C324.83,387.66,351.47,372.7,359.53,357.9Z"/><path class="cls-3" d="M354,295.94a119.86,119.86,0,0,1,6,11l7.5-8a49.38,49.38,0,0,0-5.11-1.66A46.4,46.4,0,0,0,354,295.94Z"/><path class="cls-3" d="M346.22,296.1l-28.64,22.07,21.79-.45s3-7,4.12-10.76C344.83,302.43,346.22,296.1,346.22,296.1Z"/></g><g id="points"><circle class="cls-4" cx="795" cy="5" r="5"/><circle class="cls-4" cx="5" cy="631" r="5"/></g></svg>