<svg xmlns="http://www.w3.org/2000/svg" viewBox="0 0 800 636"><defs><style>.cls-1{fill:#f2b500;}.cls-2{fill:#39b500;}.cls-3{fill:#009444;}.cls-4{fill:#fff8b9;}</style></defs><title>corn-4</title><g id="_4" data-name="4"><path class="cls-1" d="M348.2,364.5a239,239,0,0,0-23.42,15c-.06-3.34-.27-6.75-.57-10.12l7.89-8.36c3.63-3.48,8.31-3.59,12.2-.25Z"/><path class="cls-1" d="M326.46,344l-8.58-8.09A190.29,190.29,0,0,1,323,359.47l3.48-3.69C329.65,352.06,329.61,347.31,326.46,344Z"/><path class="cls-1" d="M381.68,341.85,376.52,337l-5.17-4.87c-3.9-3.33-8.56-3.25-12.19.22l-9.35,9.91a8.61,8.61,0,0,0,.49,12.18l5.17,4.87.87.82a240.68,240.68,0,0,1,28.13-12.26A9.29,9.29,0,0,0,381.68,341.85Z"/><path class="cls-1" d="M353.53,315.29l-8.85-8.35c-3.19-2.67-7.39-2.15-11,1.36l-9.35,9.91c-4,4.64-2.91,8.85-.71,11l8.85,8.35c3.57,3,8.18,2.77,11.74-.64l9.35-9.91C356.77,323.3,356.75,318.68,353.53,315.29Z"/><path class="cls-1" d="M330.69,293.75l-6.26-5.91c-2.16-1.7-5.58-.54-9.17,3l-9.35,9.91a5.84,5.84,0,0,0-.61.72c2.29,5,4.41,10.18,6.36,15.51,2.48.7,5.62-.37,8.25-3l9.35-9.91C332.47,300.49,333,296.29,330.69,293.75Z"/><path class="cls-1" d="M426.62,330c-3.53-3-8.26-2.74-11.76.62l-9.35,9.91a10.91,10.91,0,0,0-.73,1,247.6,247.6,0,0,1,28-5.72Z"/><path class="cls-1" d="M377.39,325.71l5.17,4.87,5.16,4.87c3.9,3.33,8.57,3.25,12.19-.22l9.35-9.91c3.2-3.76,3-8.54-.49-12.18l-5.16-4.87-5.17-4.87c-3.84-3.28-8.62-3.19-12.19.22l-9.35,9.91A8.61,8.61,0,0,0,377.39,325.71Z"/><path class="cls-1" d="M380.61,286.58l-8.85-8.35c-3.19-2.66-7.4-2.15-11,1.36l-9.35,9.91c-4,4.64-2.91,8.85-.72,11l8.85,8.35c3.57,3,8.18,2.77,11.74-.64l9.35-9.91C383.8,294.65,383.78,289.92,380.61,286.58Z"/><path class="cls-1" d="M357.77,265l-6.25-5.9c-2.16-1.7-5.59-.55-9.17,3.06L333,272.11c-4.1,4.57-4,7.82-2.52,9.34l6.25,5.9c2.7,2.19,6.83,1.38,10.29-2l9.35-9.91C359.55,271.77,360.11,267.6,357.77,265Z"/><path class="cls-1" d="M483,333.88c.88-2.08.92-3.91-.19-5.17l-6.25-5.9c-2.7-2.19-6.85-1.37-10.31,2L458,333.5A217.06,217.06,0,0,1,483,333.88Z"/><path class="cls-1" d="M432.63,323.62l8.83,8.33c3.2,2.68,7.42,2.16,11-1.34l9.35-9.91c3.3-3.8,3.58-8,.72-11.08l-8.83-8.33c-3.59-3-8.22-2.78-11.78.65l-9.35,9.91C428.86,316.19,430,321,432.63,323.62Z"/><path class="cls-1" d="M404.45,297l5.17,4.87,5.16,4.87c3.84,3.28,8.62,3.19,12.19-.22l9.35-9.91c3.26-3.83,3.08-8.51-.47-12.21l-5.16-4.87-5.17-4.87c-3.9-3.33-8.58-3.23-12.21.24L404,284.85A8.61,8.61,0,0,0,404.45,297Z"/><path class="cls-1" d="M407.69,257.88l-8.85-8.35c-3.19-2.67-7.41-2.14-11,1.38l-9.35,9.91c-3.77,4.34-3.08,8.67-.72,11l8.85,8.35c3.52,3,8.24,2.71,11.74-.64l9.35-9.91C410.87,266,410.86,261.22,407.69,257.88Z"/><path class="cls-1" d="M384.85,236.33l-6.25-5.9c-2.16-1.7-5.59-.54-9.2,3.09l-9.35,9.91c-4.1,4.58-3.92,7.89-2.52,9.34l6.25,5.9c2.7,2.19,6.83,1.38,10.29-2l9.35-9.91C386.62,243.08,387.19,238.89,384.85,236.33Z"/><path class="cls-1" d="M482.54,316.44l6.25,5.9c2.16,1.71,5.6.57,9.18-3l9.35-9.91c3.4-3.79,4.34-7.29,2.51-9.35l-6.25-5.9c-2.7-2.19-6.83-1.39-10.29,2l-9.35,9.91C480.35,310.16,480.52,314.39,482.54,316.44Z"/><path class="cls-1" d="M459.71,294.91l8.83,8.33c3.2,2.68,7.41,2.17,11-1.34l9.35-9.91c3.29-3.78,3.55-8,.7-11.06l-8.83-8.33c-3.59-3-8.21-2.79-11.76.62l-9.35,9.91C455.94,287.48,457.08,292.29,459.71,294.91Z"/><path class="cls-1" d="M431.53,268.33l5.17,4.87,5.16,4.87c3.9,3.33,8.56,3.25,12.19-.22l9.35-9.91c3.25-3.82,3.06-8.48-.49-12.18l-5.16-4.87L452.58,246c-3.89-3.33-8.56-3.25-12.19.22L431,256.15A8.61,8.61,0,0,0,431.53,268.33Z"/><path class="cls-1" d="M434.75,229.2l-8.85-8.35c-3.19-2.67-7.39-2.15-11,1.36l-9.35,9.91c-4,4.64-2.91,8.85-.71,11l8.85,8.35c3.57,3,8.18,2.77,11.74-.64l9.35-9.91C438,237.2,438,232.59,434.75,229.2Z"/><path class="cls-1" d="M411.91,207.64l-6.25-5.9c-2.16-1.7-5.59-.56-9.17,3.06l-9.35,9.91c-4.1,4.57-4,7.82-2.52,9.33l6.25,5.9c2.7,2.19,6.83,1.38,10.29-2L410.5,218C413.69,214.38,414.25,210.21,411.91,207.64Z"/><path class="cls-1" d="M509.62,287.74l6.25,5.9c2.16,1.71,5.6.57,9.19-3.05l9.35-9.91c3.4-3.79,4.34-7.29,2.51-9.35l-6.25-5.9c-2.7-2.19-6.84-1.38-10.29,2L511,277.35C507.43,281.46,507.6,285.68,509.62,287.74Z"/><path class="cls-1" d="M486.8,266.21l8.83,8.33c3.2,2.68,7.41,2.17,11-1.34l9.35-9.91c3.29-3.78,3.55-8,.7-11.06l-8.83-8.33c-3.53-3-8.26-2.74-11.76.62l-9.35,9.91C483,258.78,484.16,263.58,486.8,266.21Z"/><path class="cls-1" d="M458.62,239.62l5.17,4.87,5.16,4.87c3.9,3.33,8.57,3.25,12.19-.22l9.35-9.91c3.2-3.76,3-8.54-.49-12.18l-5.16-4.87-5.17-4.87c-3.84-3.28-8.62-3.19-12.19.22l-9.35,9.91A8.61,8.61,0,0,0,458.62,239.62Z"/><path class="cls-1" d="M461.83,200.49,453,192.14c-3.19-2.66-7.4-2.15-11,1.36l-9.35,9.91c-4,4.64-2.91,8.85-.72,11l8.85,8.35c3.58,3,8.18,2.77,11.74-.64l9.35-9.91C465,208.55,465,203.83,461.83,200.49Z"/><path class="cls-1" d="M439,178.94l-6.25-5.9c-2.16-1.7-5.59-.55-9.17,3.06L414.22,186c-4.1,4.57-4,7.82-2.52,9.34l6.25,5.9c2.7,2.19,6.83,1.38,10.29-2l9.35-9.91C440.77,185.68,441.33,181.5,439,178.94Z"/><path class="cls-1" d="M536.68,259.06l6.25,5.9c2.16,1.7,5.6.56,9.19-3.05l9.35-9.91c3.41-3.81,4.36-7.31,2.53-9.37l-6.25-5.9c-2.7-2.19-6.85-1.37-10.31,2l-9.35,9.91C534.49,252.78,534.66,257,536.68,259.06Z"/><path class="cls-1" d="M513.85,237.53l8.83,8.33c3.2,2.68,7.42,2.16,11-1.34L543,234.6c3.3-3.8,3.58-8,.72-11.08l-8.83-8.33c-3.59-3-8.22-2.78-11.78.65l-9.35,9.91C510.08,230.1,511.22,234.9,513.85,237.53Z"/><path class="cls-1" d="M485.67,210.94l5.17,4.87,5.16,4.87c3.84,3.28,8.62,3.19,12.19-.22l9.35-9.91c3.26-3.83,3.08-8.51-.47-12.2l-5.16-4.87-5.17-4.87c-3.9-3.33-8.58-3.23-12.21.24l-9.35,9.91A8.61,8.61,0,0,0,485.67,210.94Z"/><path class="cls-1" d="M488.92,171.78l-8.85-8.35c-3.19-2.67-7.4-2.14-11,1.38l-9.35,9.91c-3.77,4.34-3.08,8.67-.72,11l8.85,8.35c3.52,3,8.24,2.71,11.74-.64l9.35-9.91C492.1,179.86,492.09,175.12,488.92,171.78Z"/><path class="cls-1" d="M466.07,150.23l-6.25-5.9c-2.16-1.7-5.59-.54-9.2,3.09l-9.35,9.91c-4.1,4.58-3.92,7.89-2.52,9.34l6.25,5.9c2.7,2.19,6.83,1.38,10.29-2l9.35-9.91C467.84,157,468.42,152.8,466.07,150.23Z"/><path class="cls-1" d="M563.76,230.35l6.25,5.9c2.16,1.71,5.6.57,9.18-3l9.35-9.91c3.4-3.79,4.34-7.29,2.51-9.35l-6.25-5.9c-2.7-2.19-6.83-1.39-10.29,2L565.16,220C561.57,224.07,561.74,228.3,563.76,230.35Z"/><path class="cls-1" d="M540.94,208.82l8.83,8.33c3.2,2.68,7.41,2.17,11-1.34l9.35-9.91c3.29-3.78,3.55-8,.69-11.06L562,186.51c-3.59-3-8.2-2.79-11.76.62L540.87,197C537.16,201.39,538.3,206.19,540.94,208.82Z"/><path class="cls-1" d="M512.76,182.23l5.17,4.87,5.16,4.87c3.9,3.33,8.56,3.25,12.19-.22l9.35-9.91c3.25-3.82,3.06-8.48-.49-12.18L539,164.8l-5.17-4.87c-3.89-3.33-8.56-3.25-12.19.22l-9.35,9.91A8.61,8.61,0,0,0,512.76,182.23Z"/><path class="cls-1" d="M516,143.1l-8.85-8.35c-3.19-2.67-7.39-2.15-11,1.36L486.79,146c-4,4.64-2.91,8.85-.71,11l8.85,8.35c3.57,3,8.18,2.77,11.74-.64l9.35-9.91C519.21,151.11,519.2,146.49,516,143.1Z"/><path class="cls-1" d="M493.13,121.55l-6.25-5.9c-2.16-1.7-5.59-.56-9.17,3.06l-9.35,9.91c-4.1,4.57-4,7.82-2.52,9.33l6.25,5.9c2.7,2.19,6.83,1.38,10.29-2l9.35-9.91C494.91,128.29,495.48,124.12,493.13,121.55Z"/><path class="cls-1" d="M568,180.11l8.83,8.33c3.2,2.68,7.41,2.17,11-1.34l9.35-9.91c3.29-3.78,3.55-8,.7-11.06l-8.83-8.33c-3.53-3-8.26-2.74-11.76.62L568,168.34C564.24,172.68,565.39,177.49,568,180.11Z"/><path class="cls-1" d="M539.84,153.53,545,158.4l5.16,4.87c3.9,3.33,8.57,3.25,12.19-.22l9.35-9.91c3.2-3.76,3-8.54-.49-12.18l-5.16-4.87-5.17-4.87c-3.84-3.28-8.62-3.19-12.19.22l-9.35,9.91A8.61,8.61,0,0,0,539.84,153.53Z"/><path class="cls-1" d="M543.06,114.39,534.21,106c-3.19-2.66-7.4-2.15-11,1.36l-9.35,9.91c-4,4.64-2.91,8.85-.72,11L522,136.7c3.58,3,8.18,2.77,11.74-.64l9.35-9.91C546.24,122.46,546.23,117.73,543.06,114.39Z"/><path class="cls-1" d="M566.9,124.85l5.17,4.87,5.16,4.87c3.84,3.28,8.62,3.19,12.19-.22l9.35-9.91c3.26-3.83,3.08-8.51-.47-12.2l-5.16-4.87L588,102.51c-3.9-3.33-8.58-3.23-12.21.24l-9.35,9.91A8.61,8.61,0,0,0,566.9,124.85Z"/><path class="cls-2" d="M500.13,366.06c-6.72-19.12-9-21.27-9-21.27s-86.88-14.26-166.55,47.29a126.15,126.15,0,0,1-14.93,53c-.33.64-.74,1.29-1.11,1.9-16.68,29-54.33,56.87-79.13,73.07a147.74,147.74,0,0,1,35.43-5.22c57.07-1.63,106.5-32.2,159.63-72.21,27-20.39,84-32.81,84-32.81S506.84,385.19,500.13,366.06Z"/><path class="cls-3" d="M469.18,431c-13,4.69-36.77,16.58-36.77,16.58l2.85,76.24,71.3-104.57S484.74,425.42,469.18,431Z"/><path class="cls-2" d="M300.93,440.34c33.63-62-1.74-135.89-28-177-.9,5.45-8.35,47.86-22.65,69.39-30.11,45.18-52.65,86.9-51.26,133.49.81,28-7.54,45.69-9.57,50.81L200,526.93s.53-.05,1.54-.26l-.52-.9C201.78,525.37,277.92,482.64,300.93,440.34Z"/><path class="cls-3" d="M285,263.31a342.45,342.45,0,0,1,17.28,31.56l21.44-22.72a141.1,141.1,0,0,0-14.6-4.75A132.56,132.56,0,0,0,285,263.31Z"/><path class="cls-3" d="M262.91,263.79l-81.83,63.07,62.26-1.3s8.56-19.94,11.76-30.75C258.94,281.86,262.91,263.79,262.91,263.79Z"/></g><g id="points"><circle class="cls-4" cx="795" cy="5" r="5"/><circle class="cls-4" cx="5" cy="631" r="5"/></g></svg>