<svg xmlns="http://www.w3.org/2000/svg" viewBox="0 0 800 636"><defs><style>.cls-1{fill:#f2b500;}.cls-2{fill:#39b500;}.cls-3{fill:#009444;}.cls-4{fill:#fff8b9;}</style></defs><title>corn-2</title><g id="_2" data-name="2"><path class="cls-1" d="M367.5,341.55a131.46,131.46,0,0,0-12.88,8.27c0-1.84-.15-3.71-.32-5.56l4.34-4.6a4.71,4.71,0,0,1,6.71-.14Z"/><path class="cls-1" d="M355.54,330.27l-4.72-4.45a104.66,104.66,0,0,1,2.82,13l1.91-2A4.68,4.68,0,0,0,355.54,330.27Z"/><path class="cls-1" d="M385.91,329.1l-2.84-2.68-2.84-2.68a4.71,4.71,0,0,0-6.7.12l-5.14,5.45a4.73,4.73,0,0,0,.27,6.7l2.84,2.68.48.45a132.37,132.37,0,0,1,15.47-6.74A5.11,5.11,0,0,0,385.91,329.1Z"/><path class="cls-1" d="M370.43,314.49l-4.87-4.59c-1.75-1.47-4.07-1.18-6,.75l-5.14,5.45c-2.22,2.55-1.6,4.87-.39,6.07l4.87,4.59a4.6,4.6,0,0,0,6.45-.35l5.14-5.45A4.6,4.6,0,0,0,370.43,314.49Z"/><path class="cls-1" d="M357.87,302.64l-3.44-3.25c-1.19-.93-3.07-.3-5,1.68l-5.14,5.45a3.21,3.21,0,0,0-.34.4c1.26,2.73,2.43,5.6,3.5,8.53a4.85,4.85,0,0,0,4.54-1.66l5.14-5.45C358.85,306.35,359.15,304,357.87,302.64Z"/><path class="cls-1" d="M410.63,322.57a4.66,4.66,0,0,0-6.47.34L399,328.37a6,6,0,0,0-.4.56A136.18,136.18,0,0,1,414,325.78Z"/><path class="cls-1" d="M383.55,320.22l2.84,2.68,2.84,2.68a4.71,4.71,0,0,0,6.7-.12l5.14-5.45a4.76,4.76,0,0,0-.27-6.7L398,310.63l-2.84-2.68a4.76,4.76,0,0,0-6.7.12l-5.14,5.45A4.73,4.73,0,0,0,383.55,320.22Z"/><path class="cls-1" d="M385.32,298.7l-4.87-4.59c-1.75-1.47-4.07-1.18-6,.75l-5.14,5.45c-2.22,2.55-1.6,4.87-.39,6.07l4.87,4.59a4.6,4.6,0,0,0,6.46-.35l5.14-5.45A4.66,4.66,0,0,0,385.32,298.7Z"/><path class="cls-1" d="M372.76,286.84l-3.44-3.24c-1.19-.93-3.07-.3-5,1.68l-5.14,5.45c-2.26,2.51-2.2,4.3-1.39,5.13l3.44,3.24c1.48,1.21,3.76.76,5.66-1.11l5.14-5.45C373.74,290.55,374,288.26,372.76,286.84Z"/><path class="cls-1" d="M441.62,324.71a2.6,2.6,0,0,0-.11-2.84l-3.44-3.24c-1.49-1.21-3.76-.76-5.67,1.12l-4.49,4.76A119.38,119.38,0,0,1,441.62,324.71Z"/><path class="cls-1" d="M413.93,319.07l4.85,4.58c1.76,1.47,4.08,1.19,6-.74l5.14-5.45c1.82-2.09,2-4.43.4-6.1l-4.85-4.58a4.62,4.62,0,0,0-6.48.36l-5.14,5.45A4.62,4.62,0,0,0,413.93,319.07Z"/><path class="cls-1" d="M398.43,304.45l2.84,2.68,2.84,2.68a4.76,4.76,0,0,0,6.7-.12l5.14-5.45a4.72,4.72,0,0,0-.26-6.71l-2.84-2.68L410,292.16a4.72,4.72,0,0,0-6.72.13l-5.14,5.45A4.73,4.73,0,0,0,398.43,304.45Z"/><path class="cls-1" d="M400.22,282.91l-4.87-4.59c-1.75-1.47-4.07-1.17-6.05.76l-5.14,5.45c-2.08,2.39-1.69,4.77-.39,6.07l4.87,4.59a4.66,4.66,0,0,0,6.46-.35l5.14-5.45A4.67,4.67,0,0,0,400.22,282.91Z"/><path class="cls-1" d="M387.65,271.06l-3.44-3.24c-1.19-.93-3.08-.3-5.06,1.7L374,275c-2.26,2.52-2.16,4.34-1.39,5.13l3.44,3.24c1.48,1.2,3.76.76,5.66-1.11l5.14-5.45C388.63,274.77,388.94,272.47,387.65,271.06Z"/><path class="cls-1" d="M441.38,315.12l3.44,3.24c1.19.94,3.08.31,5.05-1.68l5.14-5.45c1.87-2.09,2.39-4,1.38-5.14L453,302.85c-1.48-1.21-3.76-.76-5.66,1.1l-5.14,5.45C440.18,311.67,440.27,314,441.38,315.12Z"/><path class="cls-1" d="M428.83,303.28l4.85,4.58c1.76,1.47,4.08,1.19,6-.74l5.14-5.45c1.81-2.08,2-4.41.38-6.08L440.41,291a4.61,4.61,0,0,0-6.47.34l-5.14,5.45A4.62,4.62,0,0,0,428.83,303.28Z"/><path class="cls-1" d="M413.33,288.66l2.84,2.68L419,294a4.71,4.71,0,0,0,6.7-.12l5.14-5.45a4.71,4.71,0,0,0-.27-6.7l-2.84-2.68-2.84-2.68a4.71,4.71,0,0,0-6.7.12L413.06,282A4.73,4.73,0,0,0,413.33,288.66Z"/><path class="cls-1" d="M415.1,267.13l-4.87-4.59c-1.75-1.47-4.07-1.18-6,.75L399,268.74c-2.22,2.55-1.6,4.87-.39,6.07l4.87,4.59a4.6,4.6,0,0,0,6.45-.35l5.14-5.45A4.6,4.6,0,0,0,415.1,267.13Z"/><path class="cls-1" d="M402.54,255.28,399.1,252c-1.19-.94-3.07-.31-5,1.68l-5.14,5.45c-2.26,2.51-2.2,4.3-1.39,5.13l3.44,3.24c1.48,1.21,3.76.76,5.66-1.1l5.14-5.45C403.52,259,403.83,256.69,402.54,255.28Z"/><path class="cls-1" d="M456.28,299.33l3.44,3.24c1.19.94,3.08.31,5.05-1.68l5.14-5.45c1.87-2.09,2.39-4,1.38-5.14l-3.44-3.24c-1.48-1.2-3.76-.76-5.66,1.1l-5.14,5.45C455.07,295.88,455.17,298.2,456.28,299.33Z"/><path class="cls-1" d="M443.72,287.49l4.85,4.58c1.76,1.47,4.08,1.19,6.05-.74l5.14-5.45c1.81-2.08,2-4.41.38-6.08l-4.85-4.58a4.66,4.66,0,0,0-6.47.34L443.69,281A4.62,4.62,0,0,0,443.72,287.49Z"/><path class="cls-1" d="M428.23,272.87l2.84,2.68,2.84,2.68a4.71,4.71,0,0,0,6.7-.12l5.14-5.45a4.76,4.76,0,0,0-.27-6.7l-2.84-2.68-2.84-2.68a4.76,4.76,0,0,0-6.7.12L428,266.17A4.73,4.73,0,0,0,428.23,272.87Z"/><path class="cls-1" d="M430,251.34l-4.87-4.59c-1.75-1.47-4.07-1.18-6,.75L413.95,253c-2.22,2.55-1.6,4.87-.39,6.07l4.87,4.59a4.6,4.6,0,0,0,6.46-.35l5.14-5.45A4.66,4.66,0,0,0,430,251.34Z"/><path class="cls-1" d="M417.43,239.49,414,236.25c-1.19-.93-3.07-.3-5,1.68l-5.14,5.45c-2.26,2.51-2.2,4.3-1.39,5.13l3.44,3.24c1.48,1.21,3.76.76,5.66-1.11l5.14-5.45C418.41,243.2,418.72,240.9,417.43,239.49Z"/><path class="cls-1" d="M471.16,283.56l3.44,3.24c1.19.94,3.08.31,5.05-1.68l5.14-5.45c1.88-2.09,2.4-4,1.39-5.16l-3.44-3.24c-1.49-1.21-3.76-.76-5.67,1.12l-5.14,5.45C470,280.1,470,282.43,471.16,283.56Z"/><path class="cls-1" d="M458.61,271.72l4.85,4.58c1.76,1.47,4.08,1.19,6.05-.74l5.14-5.45c1.82-2.09,2-4.43.4-6.1l-4.85-4.58a4.62,4.62,0,0,0-6.48.36l-5.14,5.45A4.62,4.62,0,0,0,458.61,271.72Z"/><path class="cls-1" d="M443.11,257.09l2.84,2.68,2.84,2.68a4.76,4.76,0,0,0,6.7-.12l5.14-5.45a4.72,4.72,0,0,0-.26-6.71l-2.84-2.68-2.84-2.68a4.72,4.72,0,0,0-6.72.13l-5.14,5.45A4.73,4.73,0,0,0,443.11,257.09Z"/><path class="cls-1" d="M444.89,235.56,440,231c-1.75-1.47-4.07-1.17-6.05.76l-5.14,5.45c-2.08,2.39-1.69,4.77-.39,6.07l4.87,4.59a4.66,4.66,0,0,0,6.46-.35L444.9,242A4.67,4.67,0,0,0,444.89,235.56Z"/><path class="cls-1" d="M432.33,223.7l-3.44-3.24c-1.19-.93-3.08-.3-5.06,1.7l-5.14,5.45c-2.26,2.52-2.16,4.34-1.39,5.13l3.44,3.24c1.48,1.2,3.76.76,5.66-1.11l5.14-5.45C433.3,227.42,433.62,225.12,432.33,223.7Z"/><path class="cls-1" d="M486.05,267.77l3.44,3.24c1.19.94,3.08.31,5.05-1.68l5.14-5.45c1.87-2.09,2.39-4,1.38-5.14l-3.44-3.24c-1.48-1.21-3.76-.76-5.66,1.1l-5.14,5.45C484.85,264.31,484.94,266.64,486.05,267.77Z"/><path class="cls-1" d="M473.5,255.93l4.85,4.58c1.76,1.47,4.08,1.19,6-.74l5.14-5.45c1.81-2.08,2-4.41.38-6.08l-4.85-4.58a4.61,4.61,0,0,0-6.47.34l-5.14,5.45A4.62,4.62,0,0,0,473.5,255.93Z"/><path class="cls-1" d="M458,241.3l2.84,2.68,2.84,2.68a4.71,4.71,0,0,0,6.7-.12l5.14-5.45a4.71,4.71,0,0,0-.27-6.7l-2.84-2.68L469.58,229a4.71,4.71,0,0,0-6.7.12l-5.14,5.45A4.73,4.73,0,0,0,458,241.3Z"/><path class="cls-1" d="M459.77,219.78l-4.87-4.59c-1.75-1.47-4.07-1.18-6,.75l-5.14,5.45c-2.22,2.55-1.6,4.87-.39,6.07l4.87,4.59a4.6,4.6,0,0,0,6.45-.35l5.14-5.45A4.6,4.6,0,0,0,459.77,219.78Z"/><path class="cls-1" d="M447.21,207.93l-3.44-3.24c-1.19-.94-3.07-.31-5,1.68l-5.14,5.45c-2.26,2.51-2.2,4.3-1.39,5.13l3.44,3.24c1.48,1.21,3.76.76,5.66-1.1l5.14-5.45C448.19,211.64,448.5,209.34,447.21,207.93Z"/><path class="cls-1" d="M488.4,240.14l4.85,4.58c1.76,1.47,4.08,1.19,6.05-.74l5.14-5.45c1.81-2.08,2-4.41.38-6.08L500,227.87a4.66,4.66,0,0,0-6.47.34l-5.14,5.45A4.62,4.62,0,0,0,488.4,240.14Z"/><path class="cls-1" d="M472.9,225.52l2.84,2.68,2.84,2.68a4.71,4.71,0,0,0,6.7-.12l5.14-5.45a4.76,4.76,0,0,0-.27-6.7l-2.84-2.68-2.84-2.68a4.76,4.76,0,0,0-6.7.12l-5.14,5.45A4.73,4.73,0,0,0,472.9,225.52Z"/><path class="cls-1" d="M474.67,204l-4.87-4.59c-1.75-1.47-4.07-1.18-6,.75l-5.14,5.45c-2.22,2.55-1.6,4.87-.39,6.07l4.87,4.59a4.6,4.6,0,0,0,6.46-.35l5.14-5.45A4.66,4.66,0,0,0,474.67,204Z"/><path class="cls-1" d="M487.78,209.74l2.84,2.68,2.84,2.68a4.76,4.76,0,0,0,6.7-.12l5.14-5.45a4.72,4.72,0,0,0-.26-6.71l-2.84-2.68-2.84-2.68a4.72,4.72,0,0,0-6.72.13L487.51,203A4.74,4.74,0,0,0,487.78,209.74Z"/><path class="cls-2" d="M451.06,342.41c-3.69-10.52-4.95-11.7-4.95-11.7s-47.78-7.84-91.6,26a69.38,69.38,0,0,1-8.21,29.15c-.18.35-.4.71-.61,1-9.17,15.94-29.88,31.28-43.52,40.19a81.26,81.26,0,0,1,19.48-2.87c31.39-.89,58.57-17.71,87.8-39.72,14.87-11.21,46.18-18,46.18-18S454.75,352.93,451.06,342.41Z"/><path class="cls-3" d="M434,378.15c-7.14,2.58-20.22,9.12-20.22,9.12l1.57,41.93,39.21-57.51S442.59,375.06,434,378.15Z"/><path class="cls-2" d="M341.5,383.27c18.5-34.08-1-74.74-15.38-97.37-.49,3-4.59,26.32-12.46,38.16-16.56,24.85-29,47.8-28.19,73.42a63.53,63.53,0,0,1-5.26,27.95l5.79,5.46s.29,0,.85-.14l-.29-.5C287,430,328.84,406.53,341.5,383.27Z"/><path class="cls-3" d="M332.74,285.9a188.35,188.35,0,0,1,9.5,17.36L354,290.75a77.6,77.6,0,0,0-8-2.61A72.91,72.91,0,0,0,332.74,285.9Z"/><path class="cls-3" d="M320.59,286.16l-45,34.69,34.25-.71s4.71-11,6.47-16.91C318.41,296.1,320.59,286.16,320.59,286.16Z"/></g><g id="points"><circle class="cls-4" cx="795" cy="5" r="5"/><circle class="cls-4" cx="5" cy="631" r="5"/></g></svg>