<svg xmlns="http://www.w3.org/2000/svg" xmlns:xlink="http://www.w3.org/1999/xlink" viewBox="0 0 800.07 636"><defs><style>.cls-1{fill:url(#linear-gradient);}.cls-2{fill:#f2b500;}.cls-3{fill:#39b500;}.cls-4{fill:#009444;}.cls-5{fill:#fff8b9;}</style><linearGradient id="linear-gradient" y1="318" x2="800.07" y2="318" gradientUnits="userSpaceOnUse"><stop offset="0" stop-color="#603913" stop-opacity="0.08"/><stop offset="1" stop-color="#603913" stop-opacity="0.08"/></linearGradient></defs><title>corn-5</title><g id="Seal"><path class="cls-1" d="M800,486.61c1.84,30.75-28.87,55.78-64.81,56.5A33.26,33.26,0,0,1,739,558.57c0,21.14-20.09,38.25-44.93,38.25-14.17,0-26.77-5.6-35-14.31-8.34,23.11-33.59,39.93-63.45,39.93a76.7,76.7,0,0,1-21.85-3.2s-3.67-1.11-4.12-1.29c-10.28-3.23-38.72-11.29-70.24-12-39.56-.9-89.67,21-99.39,30.07-9.73-9.11-59.81-31-99.4-30.07-31.51.74-60,8.79-70.24,12-.47.18-4.09,1.29-4.09,1.29a77.16,77.16,0,0,1-21.88,3.2c-29.85,0-55.12-16.82-63.45-39.93-8.22,8.71-20.85,14.31-35,14.31C81.16,596.82,61,579.71,61,558.57a33.63,33.63,0,0,1,3.85-15.45C29,542.39-1.75,517.36.08,486.61c.21-3.41,1-9.72,1-9.85,3.78-26.27,45-69.48,38.55-103.17S.08,318,.08,318s33.17-21.86,39.57-55.59S4.88,185.53,1.1,159.25c0-.13-.82-6.43-1-9.85C-1.75,118.64,29,93.61,64.89,92.92A33.69,33.69,0,0,1,61,77.46C61,56.31,81.16,39.18,106,39.18c14.15,0,26.78,5.6,35,14.32,8.33-23.11,33.6-39.94,63.45-39.94a76.5,76.5,0,0,1,21.88,3.21s3.62,1.12,4.09,1.29c10.28,3.24,38.72,11.28,70.24,12C340.22,31,390.3,9.11,400,0c9.73,9.11,59.83,31,99.39,30.09,31.53-.74,60-8.78,70.24-12,.45-.16,4.12-1.29,4.12-1.29a76,76,0,0,1,21.85-3.21c29.86,0,55.12,16.83,63.45,39.94,8.22-8.72,20.85-14.32,35-14.32,24.84,0,44.93,17.13,44.93,38.28a33.31,33.31,0,0,1-3.84,15.45c35.95.69,66.65,25.72,64.81,56.49-.22,3.42-1,9.73-1,9.85-3.78,26.28-45,69.46-38.55,103.16S800,318,800,318s-33.16,21.84-39.56,55.58,34.77,76.9,38.55,103.17C799,476.89,799.77,483.2,800,486.61Zm-21.86-18.15c-3.59-24.91-42.63-65.86-36.54-97.78S779.09,318,779.09,318s-31.42-20.71-37.51-52.68,33-72.86,36.54-97.76c0-.13.74-6.1,1-9.33,1.74-29.16-27.38-52.88-61.43-53.54A31.59,31.59,0,0,0,721.28,90c0-20-19-36.27-42.55-36.27-13.41,0-25.38,5.3-33.16,13.57-7.9-21.91-31.86-37.86-60.16-37.86a72.11,72.11,0,0,0-20.71,3s-3.48,1.07-3.9,1.22c-9.73,3.08-36.69,10.7-66.57,11.39-37.51.86-85-19.88-94.2-28.5-9.22,8.63-56.69,29.36-94.2,28.5C276,44.43,249,36.81,239.27,33.74l-3.88-1.22a72.31,72.31,0,0,0-20.73-3c-28.29,0-52.25,16-60.15,37.86-7.78-8.27-19.74-13.57-33.16-13.57C97.83,53.76,78.76,70,78.76,90a31.89,31.89,0,0,0,3.65,14.65c-34.05.66-63.17,24.38-61.42,53.54.18,3.23.93,9.21.95,9.33,3.59,24.9,42.64,65.82,36.55,97.76S21,318,21,318s31.42,20.7,37.5,52.69-33,72.88-36.55,97.78c0,.11-.76,6.1-.95,9.34-1.75,29.13,27.37,52.86,61.42,53.54A31.84,31.84,0,0,0,78.76,546c0,20,19.07,36.25,42.58,36.25,13.42,0,25.38-5.31,33.16-13.57,7.9,21.91,31.86,37.87,60.15,37.87a72.63,72.63,0,0,0,20.73-3s3.44-1.06,3.88-1.22c9.73-3.06,36.68-10.69,66.57-11.4,37.52-.85,85,19.86,94.2,28.51,9.22-8.65,56.69-29.36,94.2-28.51,29.88.71,56.83,8.34,66.57,11.4.42.16,3.9,1.22,3.9,1.22a72.44,72.44,0,0,0,20.71,3c28.29,0,52.26-16,60.16-37.87,7.78,8.26,19.73,13.57,33.16,13.57,23.53,0,42.55-16.21,42.55-36.25a31.54,31.54,0,0,0-3.62-14.65c34.05-.68,63.18-24.41,61.43-53.54C778.87,474.57,778.16,468.58,778.13,468.47ZM747.4,456.24c-3.31-22.88-39.17-60.51-33.58-89.83S748.29,318,748.29,318s-28.87-19-34.46-48.4,30.27-66.94,33.58-89.83c0-.1.68-5.59.89-8.57,1.58-26.78-25.15-48.57-56.44-49.18a29,29,0,0,0,3.34-13.46c0-18.41-17.5-33.32-39.11-33.32-12.33,0-23.32,4.87-30.48,12.46-7.25-20.12-29.26-34.78-55.25-34.78a66,66,0,0,0-19,2.8l-3.59,1.12c-8.93,2.82-33.68,9.83-61.14,10.47C452.13,68.08,408.49,49,400,41.11c-8.47,7.93-52.08,27-86.55,26.21-27.44-.65-52.21-7.65-61.15-10.47l-3.57-1.12a66.26,66.26,0,0,0-19-2.8c-26,0-48,14.66-55.26,34.78-7.16-7.59-18.15-12.46-30.47-12.46-21.59,0-39.11,14.9-39.11,33.32A29.22,29.22,0,0,0,108.23,122c-31.3.61-58,22.41-56.43,49.18.18,3,.86,8.47.87,8.57,3.3,22.89,39.18,60.49,33.58,89.83S51.8,318,51.8,318s28.85,19,34.45,48.41-30.27,67-33.58,89.83c0,.1-.7,5.6-.87,8.58-1.61,26.76,25.13,48.56,56.43,49.19a29.2,29.2,0,0,0-3.34,13.46c0,18.41,17.52,33.31,39.11,33.31,12.32,0,23.31-4.88,30.47-12.47,7.26,20.14,29.27,34.79,55.26,34.79a66.6,66.6,0,0,0,19-2.8s3.15-1,3.57-1.12c8.94-2.81,33.71-9.82,61.15-10.47,34.46-.79,78.07,18.25,86.55,26.19,8.46-7.94,52.09-27,86.55-26.19,27.46.65,52.21,7.66,61.14,10.47.4.15,3.59,1.12,3.59,1.12a66.4,66.4,0,0,0,19,2.8c26,0,48-14.66,55.25-34.79,7.16,7.59,18.12,12.47,30.48,12.47,21.6,0,39.11-14.89,39.11-33.31A29,29,0,0,0,691.85,514c31.29-.62,58-22.42,56.44-49.19C748.08,461.84,747.43,456.34,747.4,456.24Z"/></g><g id="_4" data-name="4"><path class="cls-2" d="M348.2,364.5a239,239,0,0,0-23.42,15c-.06-3.34-.27-6.75-.57-10.12l7.89-8.36c3.63-3.48,8.31-3.59,12.2-.25Z"/><path class="cls-2" d="M326.46,344l-8.58-8.09A190.29,190.29,0,0,1,323,359.47l3.48-3.69C329.65,352.06,329.61,347.31,326.46,344Z"/><path class="cls-2" d="M381.68,341.85,376.52,337l-5.17-4.87c-3.9-3.33-8.56-3.25-12.19.22l-9.35,9.91a8.61,8.61,0,0,0,.49,12.18l5.17,4.87.87.82a240.68,240.68,0,0,1,28.13-12.26A9.29,9.29,0,0,0,381.68,341.85Z"/><path class="cls-2" d="M353.53,315.29l-8.85-8.35c-3.19-2.67-7.39-2.15-11,1.36l-9.35,9.91c-4,4.64-2.91,8.85-.71,11l8.85,8.35c3.57,3,8.18,2.77,11.74-.64l9.35-9.91C356.77,323.3,356.75,318.68,353.53,315.29Z"/><path class="cls-2" d="M330.69,293.75l-6.26-5.91c-2.16-1.7-5.58-.54-9.17,3l-9.35,9.91a5.84,5.84,0,0,0-.61.72c2.29,5,4.41,10.18,6.36,15.51,2.48.7,5.62-.37,8.25-3l9.35-9.91C332.47,300.49,333,296.29,330.69,293.75Z"/><path class="cls-2" d="M426.62,330c-3.53-3-8.26-2.74-11.76.62l-9.35,9.91a10.91,10.91,0,0,0-.73,1,247.6,247.6,0,0,1,28-5.72Z"/><path class="cls-2" d="M377.39,325.71l5.17,4.87,5.16,4.87c3.9,3.33,8.57,3.25,12.19-.22l9.35-9.91c3.2-3.76,3-8.54-.49-12.18l-5.16-4.87-5.17-4.87c-3.84-3.28-8.62-3.19-12.19.22l-9.35,9.91A8.61,8.61,0,0,0,377.39,325.71Z"/><path class="cls-2" d="M380.61,286.58l-8.85-8.35c-3.19-2.66-7.4-2.15-11,1.36l-9.35,9.91c-4,4.64-2.91,8.85-.72,11l8.85,8.35c3.57,3,8.18,2.77,11.74-.64l9.35-9.91C383.8,294.65,383.78,289.92,380.61,286.58Z"/><path class="cls-2" d="M357.77,265l-6.25-5.9c-2.16-1.7-5.59-.55-9.17,3.06L333,272.11c-4.1,4.57-4,7.82-2.52,9.34l6.25,5.9c2.7,2.19,6.83,1.38,10.29-2l9.35-9.91C359.55,271.77,360.11,267.6,357.77,265Z"/><path class="cls-2" d="M483,333.88c.88-2.08.92-3.91-.19-5.17l-6.25-5.9c-2.7-2.19-6.85-1.37-10.31,2L458,333.5A217.06,217.06,0,0,1,483,333.88Z"/><path class="cls-2" d="M432.63,323.62l8.83,8.33c3.2,2.68,7.42,2.16,11-1.34l9.35-9.91c3.3-3.8,3.58-8,.72-11.08l-8.83-8.33c-3.59-3-8.22-2.78-11.78.65l-9.35,9.91C428.86,316.19,430,321,432.63,323.62Z"/><path class="cls-2" d="M404.45,297l5.17,4.87,5.16,4.87c3.84,3.28,8.62,3.19,12.19-.22l9.35-9.91c3.26-3.83,3.08-8.51-.47-12.21l-5.16-4.87-5.17-4.87c-3.9-3.33-8.58-3.23-12.21.24L404,284.85A8.61,8.61,0,0,0,404.45,297Z"/><path class="cls-2" d="M407.69,257.88l-8.85-8.35c-3.19-2.67-7.41-2.14-11,1.38l-9.35,9.91c-3.77,4.34-3.08,8.67-.72,11l8.85,8.35c3.52,3,8.24,2.71,11.74-.64l9.35-9.91C410.87,266,410.86,261.22,407.69,257.88Z"/><path class="cls-2" d="M384.85,236.33l-6.25-5.9c-2.16-1.7-5.59-.54-9.2,3.09l-9.35,9.91c-4.1,4.58-3.92,7.89-2.52,9.34l6.25,5.9c2.7,2.19,6.83,1.38,10.29-2l9.35-9.91C386.62,243.08,387.19,238.89,384.85,236.33Z"/><path class="cls-2" d="M482.54,316.44l6.25,5.9c2.16,1.71,5.6.57,9.18-3l9.35-9.91c3.4-3.79,4.34-7.29,2.51-9.35l-6.25-5.9c-2.7-2.19-6.83-1.39-10.29,2l-9.35,9.91C480.35,310.16,480.52,314.39,482.54,316.44Z"/><path class="cls-2" d="M459.71,294.91l8.83,8.33c3.2,2.68,7.41,2.17,11-1.34l9.35-9.91c3.29-3.78,3.55-8,.7-11.06l-8.83-8.33c-3.59-3-8.21-2.79-11.76.62l-9.35,9.91C455.94,287.48,457.08,292.29,459.71,294.91Z"/><path class="cls-2" d="M431.53,268.33l5.17,4.87,5.16,4.87c3.9,3.33,8.56,3.25,12.19-.22l9.35-9.91c3.25-3.82,3.06-8.48-.49-12.18l-5.16-4.87L452.58,246c-3.89-3.33-8.56-3.25-12.19.22L431,256.15A8.61,8.61,0,0,0,431.53,268.33Z"/><path class="cls-2" d="M434.75,229.2l-8.85-8.35c-3.19-2.67-7.39-2.15-11,1.36l-9.35,9.91c-4,4.64-2.91,8.85-.71,11l8.85,8.35c3.57,3,8.18,2.77,11.74-.64l9.35-9.91C438,237.2,438,232.59,434.75,229.2Z"/><path class="cls-2" d="M411.91,207.64l-6.25-5.9c-2.16-1.7-5.59-.56-9.17,3.06l-9.35,9.91c-4.1,4.57-4,7.82-2.52,9.33l6.25,5.9c2.7,2.19,6.83,1.38,10.29-2L410.5,218C413.69,214.38,414.25,210.21,411.91,207.64Z"/><path class="cls-2" d="M509.62,287.74l6.25,5.9c2.16,1.71,5.6.57,9.19-3.05l9.35-9.91c3.4-3.79,4.34-7.29,2.51-9.35l-6.25-5.9c-2.7-2.19-6.84-1.38-10.29,2L511,277.35C507.43,281.46,507.6,285.68,509.62,287.74Z"/><path class="cls-2" d="M486.8,266.21l8.83,8.33c3.2,2.68,7.41,2.17,11-1.34l9.35-9.91c3.29-3.78,3.55-8,.7-11.06l-8.83-8.33c-3.53-3-8.26-2.74-11.76.62l-9.35,9.91C483,258.78,484.16,263.58,486.8,266.21Z"/><path class="cls-2" d="M458.62,239.62l5.17,4.87,5.16,4.87c3.9,3.33,8.57,3.25,12.19-.22l9.35-9.91c3.2-3.76,3-8.54-.49-12.18l-5.16-4.87-5.17-4.87c-3.84-3.28-8.62-3.19-12.19.22l-9.35,9.91A8.61,8.61,0,0,0,458.62,239.62Z"/><path class="cls-2" d="M461.83,200.49,453,192.14c-3.19-2.66-7.4-2.15-11,1.36l-9.35,9.91c-4,4.64-2.91,8.85-.72,11l8.85,8.35c3.58,3,8.18,2.77,11.74-.64l9.35-9.91C465,208.55,465,203.83,461.83,200.49Z"/><path class="cls-2" d="M439,178.94l-6.25-5.9c-2.16-1.7-5.59-.55-9.17,3.06L414.22,186c-4.1,4.57-4,7.82-2.52,9.34l6.25,5.9c2.7,2.19,6.83,1.38,10.29-2l9.35-9.91C440.77,185.68,441.33,181.5,439,178.94Z"/><path class="cls-2" d="M536.68,259.06l6.25,5.9c2.16,1.7,5.6.56,9.19-3.05l9.35-9.91c3.41-3.81,4.36-7.31,2.53-9.37l-6.25-5.9c-2.7-2.19-6.85-1.37-10.31,2l-9.35,9.91C534.49,252.78,534.66,257,536.68,259.06Z"/><path class="cls-2" d="M513.85,237.53l8.83,8.33c3.2,2.68,7.42,2.16,11-1.34L543,234.6c3.3-3.8,3.58-8,.72-11.08l-8.83-8.33c-3.59-3-8.22-2.78-11.78.65l-9.35,9.91C510.08,230.1,511.22,234.9,513.85,237.53Z"/><path class="cls-2" d="M485.67,210.94l5.17,4.87,5.16,4.87c3.84,3.28,8.62,3.19,12.19-.22l9.35-9.91c3.26-3.83,3.08-8.51-.47-12.2l-5.16-4.87-5.17-4.87c-3.9-3.33-8.58-3.23-12.21.24l-9.35,9.91A8.61,8.61,0,0,0,485.67,210.94Z"/><path class="cls-2" d="M488.92,171.78l-8.85-8.35c-3.19-2.67-7.4-2.14-11,1.38l-9.35,9.91c-3.77,4.34-3.08,8.67-.72,11l8.85,8.35c3.52,3,8.24,2.71,11.74-.64l9.35-9.91C492.1,179.86,492.09,175.12,488.92,171.78Z"/><path class="cls-2" d="M466.07,150.23l-6.25-5.9c-2.16-1.7-5.59-.54-9.2,3.09l-9.35,9.91c-4.1,4.58-3.92,7.89-2.52,9.34l6.25,5.9c2.7,2.19,6.83,1.38,10.29-2l9.35-9.91C467.84,157,468.42,152.8,466.07,150.23Z"/><path class="cls-2" d="M563.76,230.35l6.25,5.9c2.16,1.71,5.6.57,9.18-3l9.35-9.91c3.4-3.79,4.34-7.29,2.51-9.35l-6.25-5.9c-2.7-2.19-6.83-1.39-10.29,2L565.16,220C561.57,224.07,561.74,228.3,563.76,230.35Z"/><path class="cls-2" d="M540.94,208.82l8.83,8.33c3.2,2.68,7.41,2.17,11-1.34l9.35-9.91c3.29-3.78,3.55-8,.69-11.06L562,186.51c-3.59-3-8.2-2.79-11.76.62L540.87,197C537.16,201.39,538.3,206.19,540.94,208.82Z"/><path class="cls-2" d="M512.76,182.23l5.17,4.87,5.16,4.87c3.9,3.33,8.56,3.25,12.19-.22l9.35-9.91c3.25-3.82,3.06-8.48-.49-12.18L539,164.8l-5.17-4.87c-3.89-3.33-8.56-3.25-12.19.22l-9.35,9.91A8.61,8.61,0,0,0,512.76,182.23Z"/><path class="cls-2" d="M516,143.1l-8.85-8.35c-3.19-2.67-7.39-2.15-11,1.36L486.79,146c-4,4.64-2.91,8.85-.71,11l8.85,8.35c3.57,3,8.18,2.77,11.74-.64l9.35-9.91C519.21,151.11,519.2,146.49,516,143.1Z"/><path class="cls-2" d="M493.13,121.55l-6.25-5.9c-2.16-1.7-5.59-.56-9.17,3.06l-9.35,9.91c-4.1,4.57-4,7.82-2.52,9.33l6.25,5.9c2.7,2.19,6.83,1.38,10.29-2l9.35-9.91C494.91,128.29,495.48,124.12,493.13,121.55Z"/><path class="cls-2" d="M568,180.11l8.83,8.33c3.2,2.68,7.41,2.17,11-1.34l9.35-9.91c3.29-3.78,3.55-8,.7-11.06l-8.83-8.33c-3.53-3-8.26-2.74-11.76.62L568,168.34C564.24,172.68,565.39,177.49,568,180.11Z"/><path class="cls-2" d="M539.84,153.53,545,158.4l5.16,4.87c3.9,3.33,8.57,3.25,12.19-.22l9.35-9.91c3.2-3.76,3-8.54-.49-12.18l-5.16-4.87-5.17-4.87c-3.84-3.28-8.62-3.19-12.19.22l-9.35,9.91A8.61,8.61,0,0,0,539.84,153.53Z"/><path class="cls-2" d="M543.06,114.39,534.21,106c-3.19-2.66-7.4-2.15-11,1.36l-9.35,9.91c-4,4.64-2.91,8.85-.72,11L522,136.7c3.58,3,8.18,2.77,11.74-.64l9.35-9.91C546.24,122.46,546.23,117.73,543.06,114.39Z"/><path class="cls-2" d="M566.9,124.85l5.17,4.87,5.16,4.87c3.84,3.28,8.62,3.19,12.19-.22l9.35-9.91c3.26-3.83,3.08-8.51-.47-12.2l-5.16-4.87L588,102.51c-3.9-3.33-8.58-3.23-12.21.24l-9.35,9.91A8.61,8.61,0,0,0,566.9,124.85Z"/><path class="cls-3" d="M500.13,366.06c-6.72-19.12-9-21.27-9-21.27s-86.88-14.26-166.55,47.29a126.15,126.15,0,0,1-14.93,53c-.33.64-.74,1.29-1.11,1.9-16.68,29-54.33,56.87-79.13,73.07a147.74,147.74,0,0,1,35.43-5.22c57.07-1.63,106.5-32.2,159.63-72.21,27-20.39,84-32.81,84-32.81S506.84,385.19,500.13,366.06Z"/><path class="cls-4" d="M469.18,431c-13,4.69-36.77,16.58-36.77,16.58l2.85,76.24,71.3-104.57S484.74,425.42,469.18,431Z"/><path class="cls-3" d="M300.93,440.34c33.63-62-1.74-135.89-28-177-.9,5.45-8.35,47.86-22.65,69.39-30.11,45.18-52.65,86.9-51.26,133.49.81,28-7.54,45.69-9.57,50.81L200,526.93s.53-.05,1.54-.26l-.52-.9C201.78,525.37,277.92,482.64,300.93,440.34Z"/><path class="cls-4" d="M285,263.31a342.45,342.45,0,0,1,17.28,31.56l21.44-22.72a141.1,141.1,0,0,0-14.6-4.75A132.56,132.56,0,0,0,285,263.31Z"/><path class="cls-4" d="M262.91,263.79l-81.83,63.07,62.26-1.3s8.56-19.94,11.76-30.75C258.94,281.86,262.91,263.79,262.91,263.79Z"/></g><g id="points"><circle class="cls-5" cx="795" cy="5" r="5"/><circle class="cls-5" cx="5" cy="631" r="5"/></g></svg>