<svg xmlns="http://www.w3.org/2000/svg" viewBox="0 0 800 636"><defs><style>.cls-1{fill:#f2b500;}.cls-2{fill:#39b500;}.cls-3{fill:#009444;}.cls-4{fill:#fff8b9;}</style></defs><title>corn-3</title><g id="_3" data-name="3"><path class="cls-1" d="M358.92,351.75A179.26,179.26,0,0,0,341.36,363c0-2.51-.2-5.06-.43-7.59l5.91-6.27A6.42,6.42,0,0,1,356,349Z"/><path class="cls-1" d="M342.61,336.37l-6.43-6.07A142.72,142.72,0,0,1,340,348l2.61-2.77A6.38,6.38,0,0,0,342.61,336.37Z"/><path class="cls-1" d="M384,334.77l-3.87-3.65-3.87-3.66a6.42,6.42,0,0,0-9.14.16l-7,7.44a6.45,6.45,0,0,0,.37,9.13l3.87,3.66.65.62a180.51,180.51,0,0,1,21.1-9.19A7,7,0,0,0,384,334.77Z"/><path class="cls-1" d="M362.92,314.84l-6.64-6.26c-2.39-2-5.55-1.61-8.23,1L341,317c-3,3.48-2.18,6.63-.54,8.28l6.64,6.26c2.68,2.27,6.14,2.08,8.8-.48l7-7.44C365.35,320.85,365.33,317.39,362.92,314.84Z"/><path class="cls-1" d="M345.79,298.69l-4.69-4.43c-1.62-1.27-4.18-.41-6.87,2.29l-7,7.44a4.38,4.38,0,0,0-.46.54c1.72,3.72,3.31,7.64,4.77,11.63,1.86.53,4.21-.28,6.19-2.27l7-7.44C347.13,303.75,347.53,300.59,345.79,298.69Z"/><path class="cls-1" d="M417.74,325.87a6.36,6.36,0,0,0-8.82.47l-7,7.43a8.18,8.18,0,0,0-.55.77,185.7,185.7,0,0,1,21-4.29Z"/><path class="cls-1" d="M380.82,322.66l3.87,3.66,3.87,3.65a6.42,6.42,0,0,0,9.14-.16l7-7.43a6.49,6.49,0,0,0-.37-9.13l-3.87-3.65-3.87-3.66a6.49,6.49,0,0,0-9.14.16l-7,7.43A6.46,6.46,0,0,0,380.82,322.66Z"/><path class="cls-1" d="M383.23,293.31l-6.64-6.26c-2.39-2-5.55-1.61-8.24,1l-7,7.43c-3,3.48-2.18,6.64-.54,8.28l6.64,6.26c2.68,2.27,6.14,2.08,8.8-.48l7-7.43A6.35,6.35,0,0,0,383.23,293.31Z"/><path class="cls-1" d="M366.1,277.15l-4.69-4.42c-1.62-1.27-4.19-.41-6.88,2.3l-7,7.43c-3.08,3.43-3,5.87-1.89,7l4.69,4.42c2,1.64,5.12,1,7.72-1.51l7-7.43C367.43,282.21,367.85,279.07,366.1,277.15Z"/><path class="cls-1" d="M460,328.78c.66-1.56.69-2.93-.15-3.88l-4.69-4.42c-2-1.64-5.13-1-7.74,1.53l-6.12,6.49A162.79,162.79,0,0,1,460,328.78Z"/><path class="cls-1" d="M422.24,321.09l6.62,6.25c2.4,2,5.56,1.62,8.25-1l7-7.43c2.48-2.85,2.68-6,.54-8.31L438,304.34c-2.69-2.27-6.16-2.09-8.84.49l-7,7.43A6.3,6.3,0,0,0,422.24,321.09Z"/><path class="cls-1" d="M401.11,301.15l3.87,3.66,3.87,3.65a6.49,6.49,0,0,0,9.14-.16l7-7.43a6.43,6.43,0,0,0-.35-9.15l-3.87-3.65-3.87-3.66a6.43,6.43,0,0,0-9.16.18l-7,7.43A6.46,6.46,0,0,0,401.11,301.15Z"/><path class="cls-1" d="M403.54,271.78l-6.64-6.26c-2.39-2-5.55-1.6-8.25,1l-7,7.43c-2.83,3.26-2.31,6.51-.54,8.28l6.64,6.26a6.35,6.35,0,0,0,8.8-.48l7-7.43A6.36,6.36,0,0,0,403.54,271.78Z"/><path class="cls-1" d="M386.41,255.62l-4.69-4.42c-1.62-1.27-4.2-.41-6.9,2.32l-7,7.43c-3.08,3.43-2.94,5.92-1.89,7l4.69,4.42c2,1.64,5.13,1,7.72-1.51l7-7.43C387.73,260.68,388.17,257.55,386.41,255.62Z"/><path class="cls-1" d="M459.67,315.71l4.69,4.42c1.62,1.28,4.2.42,6.89-2.29l7-7.44c2.55-2.84,3.25-5.46,1.88-7L475.46,299c-2-1.65-5.13-1-7.72,1.51l-7,7.44C458,311,458.16,314.17,459.67,315.71Z"/><path class="cls-1" d="M442.56,299.56l6.62,6.25c2.4,2,5.56,1.62,8.25-1l7-7.44c2.47-2.84,2.67-6,.52-8.29l-6.62-6.25c-2.69-2.28-6.15-2.09-8.82.47l-7,7.44A6.3,6.3,0,0,0,442.56,299.56Z"/><path class="cls-1" d="M421.42,279.62l3.87,3.66,3.87,3.65a6.42,6.42,0,0,0,9.14-.16l7-7.44a6.42,6.42,0,0,0-.37-9.13l-3.87-3.65-3.87-3.66a6.42,6.42,0,0,0-9.14.16l-7,7.44A6.46,6.46,0,0,0,421.42,279.62Z"/><path class="cls-1" d="M423.83,250.27,417.2,244c-2.39-2-5.55-1.61-8.23,1l-7,7.44c-3,3.48-2.18,6.63-.54,8.28L408,267c2.68,2.27,6.14,2.08,8.8-.48l7-7.44C426.26,256.28,426.25,252.82,423.83,250.27Z"/><path class="cls-1" d="M406.7,234.11,402,229.69c-1.62-1.28-4.19-.42-6.88,2.3l-7,7.44c-3.08,3.43-3,5.86-1.89,7l4.69,4.42c2,1.64,5.12,1,7.72-1.51l7-7.44C408,239.16,408.46,236,406.7,234.11Z"/><path class="cls-1" d="M480,294.18l4.69,4.42c1.62,1.28,4.2.42,6.89-2.29l7-7.43c2.55-2.84,3.25-5.47,1.88-7l-4.69-4.42c-2-1.64-5.13-1-7.72,1.51l-7,7.43C478.34,289.47,478.47,292.64,480,294.18Z"/><path class="cls-1" d="M462.87,278l6.62,6.25c2.4,2,5.56,1.62,8.25-1l7-7.43c2.47-2.84,2.67-6,.52-8.29l-6.62-6.25a6.36,6.36,0,0,0-8.82.47l-7,7.43A6.3,6.3,0,0,0,462.87,278Z"/><path class="cls-1" d="M441.73,258.09l3.87,3.66,3.87,3.65a6.42,6.42,0,0,0,9.14-.16l7-7.43a6.49,6.49,0,0,0-.37-9.13L461.39,245l-3.87-3.66a6.49,6.49,0,0,0-9.14.16l-7,7.43A6.46,6.46,0,0,0,441.73,258.09Z"/><path class="cls-1" d="M444.15,228.74l-6.64-6.26c-2.39-2-5.55-1.61-8.24,1l-7,7.43c-3,3.48-2.18,6.64-.54,8.28l6.64,6.26c2.68,2.27,6.14,2.08,8.8-.48l7-7.43A6.35,6.35,0,0,0,444.15,228.74Z"/><path class="cls-1" d="M427,212.58l-4.69-4.42c-1.62-1.27-4.19-.41-6.88,2.3l-7,7.43c-3.08,3.43-3,5.87-1.89,7l4.69,4.42c2,1.64,5.12,1,7.72-1.51l7-7.43C428.35,217.63,428.77,214.5,427,212.58Z"/><path class="cls-1" d="M500.28,272.67l4.69,4.42c1.62,1.28,4.2.42,6.89-2.29l7-7.43c2.56-2.86,3.27-5.48,1.9-7l-4.69-4.42c-2-1.64-5.13-1-7.74,1.53l-7,7.43C498.64,268,498.76,271.13,500.28,272.67Z"/><path class="cls-1" d="M483.16,256.52l6.62,6.25c2.4,2,5.56,1.62,8.25-1l7-7.43c2.48-2.85,2.68-6,.54-8.31L499,239.77c-2.69-2.27-6.16-2.09-8.84.49l-7,7.43A6.3,6.3,0,0,0,483.16,256.52Z"/><path class="cls-1" d="M462,236.58l3.87,3.66,3.87,3.65a6.49,6.49,0,0,0,9.14-.16l7-7.43a6.43,6.43,0,0,0-.35-9.15l-3.87-3.65-3.87-3.66a6.43,6.43,0,0,0-9.16.18l-7,7.43A6.46,6.46,0,0,0,462,236.58Z"/><path class="cls-1" d="M464.46,207.21,457.82,201c-2.39-2-5.55-1.6-8.25,1l-7,7.43c-2.83,3.26-2.31,6.51-.54,8.28l6.64,6.26a6.35,6.35,0,0,0,8.8-.48l7-7.43A6.36,6.36,0,0,0,464.46,207.21Z"/><path class="cls-1" d="M447.33,191l-4.69-4.42c-1.62-1.27-4.2-.41-6.9,2.32l-7,7.43c-3.08,3.43-2.94,5.92-1.89,7l4.69,4.42c2,1.64,5.13,1,7.72-1.51l7-7.43C448.65,196.11,449.08,193,447.33,191Z"/><path class="cls-1" d="M520.59,251.14l4.69,4.42c1.62,1.28,4.2.42,6.89-2.29l7-7.44c2.55-2.84,3.25-5.46,1.88-7l-4.69-4.42c-2-1.65-5.12-1-7.72,1.51l-7,7.44C519,246.43,519.07,249.6,520.59,251.14Z"/><path class="cls-1" d="M503.47,235l6.62,6.25c2.4,2,5.56,1.62,8.25-1l7-7.44c2.47-2.84,2.67-6,.52-8.29l-6.62-6.25c-2.69-2.28-6.15-2.09-8.82.47l-7,7.44A6.3,6.3,0,0,0,503.47,235Z"/><path class="cls-1" d="M482.34,215l3.87,3.66,3.87,3.65a6.42,6.42,0,0,0,9.14-.16l7-7.44a6.42,6.42,0,0,0-.37-9.13L502,202l-3.87-3.66a6.42,6.42,0,0,0-9.14.16l-7,7.44A6.46,6.46,0,0,0,482.34,215Z"/><path class="cls-1" d="M484.75,185.7l-6.64-6.26c-2.39-2-5.55-1.61-8.23,1l-7,7.44c-3,3.48-2.18,6.63-.54,8.28l6.64,6.26c2.68,2.27,6.14,2.08,8.8-.48l7-7.44C487.18,191.71,487.17,188.25,484.75,185.7Z"/><path class="cls-1" d="M467.62,169.54l-4.69-4.42c-1.62-1.28-4.19-.42-6.88,2.3l-7,7.44c-3.08,3.43-3,5.86-1.89,7l4.69,4.42c2,1.64,5.12,1,7.72-1.51l7-7.44C469,174.59,469.38,171.46,467.62,169.54Z"/><path class="cls-1" d="M523.79,213.46l6.62,6.25c2.4,2,5.56,1.62,8.25-1l7-7.43c2.47-2.84,2.66-6,.52-8.29l-6.62-6.25a6.36,6.36,0,0,0-8.82.47l-7,7.43A6.3,6.3,0,0,0,523.79,213.46Z"/><path class="cls-1" d="M502.65,193.52l3.87,3.66,3.87,3.65a6.42,6.42,0,0,0,9.14-.16l7-7.43a6.49,6.49,0,0,0-.37-9.13l-3.87-3.65-3.87-3.66a6.49,6.49,0,0,0-9.14.16l-7,7.43A6.46,6.46,0,0,0,502.65,193.52Z"/><path class="cls-1" d="M505.06,164.17l-6.64-6.26c-2.39-2-5.55-1.61-8.24,1l-7,7.43c-3,3.48-2.18,6.64-.54,8.28l6.64,6.26c2.68,2.27,6.14,2.08,8.8-.48l7-7.43A6.35,6.35,0,0,0,505.06,164.17Z"/><path class="cls-1" d="M522.94,172l3.87,3.66,3.87,3.65a6.49,6.49,0,0,0,9.14-.16l7-7.43a6.43,6.43,0,0,0-.35-9.15l-3.87-3.65-3.87-3.66a6.43,6.43,0,0,0-9.16.18l-7,7.43A6.46,6.46,0,0,0,522.94,172Z"/><path class="cls-2" d="M472.87,352.92c-5-14.34-6.75-16-6.75-16S401,326.28,341.21,372.43A94.61,94.61,0,0,1,330,412.19c-.25.48-.55,1-.83,1.42-12.51,21.74-40.75,42.65-59.34,54.8a110.81,110.81,0,0,1,26.57-3.91c42.8-1.22,79.87-24.15,119.72-54.16,20.27-15.29,63-24.61,63-24.61S477.9,367.27,472.87,352.92Z"/><path class="cls-3" d="M449.65,401.66c-9.74,3.52-27.58,12.43-27.58,12.43l2.14,57.18,53.47-78.43S461.32,397.44,449.65,401.66Z"/><path class="cls-2" d="M323.47,408.63c25.22-46.47-1.3-101.92-21-132.78-.67,4.08-6.26,35.89-17,52C262.93,361.78,246,393.07,247.07,428a86.64,86.64,0,0,1-7.18,38.11l7.9,7.45s.39,0,1.16-.19l-.39-.68C249.1,472.4,306.21,440.36,323.47,408.63Z"/><path class="cls-3" d="M311.53,275.86a256.84,256.84,0,0,1,13,23.67l16.08-17a105.82,105.82,0,0,0-11-3.56A99.42,99.42,0,0,0,311.53,275.86Z"/><path class="cls-3" d="M295,276.22l-61.37,47.3,46.7-1s6.42-15,8.82-23.06C292,289.77,295,276.22,295,276.22Z"/></g><g id="points"><circle class="cls-4" cx="795" cy="5" r="5"/><circle class="cls-4" cx="5" cy="631" r="5"/></g></svg>