<svg id="Layer_1" data-name="Layer 1" xmlns="http://www.w3.org/2000/svg" viewBox="0 0 439.93 409.82"><defs><style>.cls-1{fill:#926231;}</style></defs><title>leaf-hinge</title><path class="cls-1" d="M203.6,364.38c23.86-21.23,36.27-40.8,34-53.69-1-5.82-5.12-10.23-12.22-13.1l-8.24-3.33,8.57-2.34c8.55-2.34,22.9-7.58,22.9-16.43,0-8.63-13.59-19.06-25.29-22.28L217,251.46l5.48-3.64c11.92-7.92,63.29-16.91,99.85-10.74-46.31-40.28-86.77-67.55-123.52-83.26-3.91-1.67-7.23-3-9.91-4-6.74-2.6-10.45-4-11.83-7.37-1.05-2.53-.24-5.29.88-7.93.39-6.2,1.47-12.48,6.13-13.25,6.13-1,12.6,11.11,17.1,22,36.25,15.4,78.23,44.41,128.11,88.57-6.91-35.63,9.49-64.09,21.65-85.21,2.84-4.93,5.52-9.58,7.55-13.73l4.46-9.13,1.21,10.08c3.74,31,9.8,35.28,12.24,35.67,8.4,1.34,21.61-26.84,26-36.1l1.26-2.68,3.48-7.33,2.12,7.83c1.23,4.54,3.22,7.15,6.08,8,11.17,3.21,34.79-18.65,44.88-28l10.54-9.76L465,114.63c-7.76,17.74-5,23.21-4,24.47,1.61,2,5,1.68,7.53,1.1l5.17-1.16-1.66,5c-6.17,18.73-5.86,31.39.9,36.61,8.58,6.63,28.18,1.53,51.14-13.31l10.82-7-6.61,11c-8.82,14.73-11.62,25.53-8.33,32.11,4.07,8.14,17.46,9.54,28.22,10.67,3.27.34,6.37.67,9,1.16l8.76,1.66-8,4c-3.82,1.91-4.18,3.85-4.11,5.15.44,8.85,23.27,25.42,47.9,34.76l14.78,5.6-15.81.2c-32.91.42-41.19,8.69-43.22,12.23-1.6,2.78-1.4,6,.61,9.54l3.82,6.77-7.38-2.44c-15.22-5-18.17-2.49-18.6-1.92-2,2.6,1.57,11,10.64,25.09l5.42,8.39-9.15-4C509,305.47,497.52,306.76,496,309.86c-3.3,6.91,20.36,36,56.76,54.73l23.09,11.9-25.2-6.32c-30.74-7.71-37.14-3.32-38.46-1.08-1.58,2.68-1.28,10.31,18.42,31.41.62.67,1.12,1.2,1.44,1.56l5.84,6.54L529.31,407c-4.21-.78-7.14-.44-8.05.92-3.91,5.86,11.26,29.17,17,37.94,1.6,2.46,3,4.59,3.92,6.16,1.18,2,2.65,4.44.67,6.35a3.15,3.15,0,0,1-1.28.75,3.91,3.91,0,0,1-3.43-.82c-22.1-15.5-38.08-22.16-47.48-19.79-3.91,1-6.71,3.51-9.07,8.18l-1.63,3.23-2.87-2.2c-13.71-10.49-23.67-14.93-29.6-13.2h0c-4.85,1.45-7,7.37-9.11,13.09a51.67,51.67,0,0,1-3.1,7.34l-3,5.41-2.37-5.72c-23.6-56.93-34.13-62.15-36.8-62.4-.34,0-1.07-.1-2,1.36-5.5,8.46-2.62,39.8,4.88,53.24l10.93,19.56-15.69-16c-4.92-5-9.08-7.31-11.37-6.28-2.76,1.24-4.12,7.44-3.78,12.49l.7,10.65-6.15-8.73c-2.63-3.74-5.12-5.62-6.84-5.18-3.84,1-8.08,11.6-9.29,23.16l-.59,5.67-4.34-3.7c-4.09-3.49-7.4-5-9.57-4.35h0c-3.92,1.2-6.26,9.66-8.32,17.12a102.31,102.31,0,0,1-3.51,11.1l-3.64,8.88-2.07-9.37c-5.67-25.66-11-30.92-13.6-31.76-2.26-.72-4.83,1.37-8,4.19-.56.51-1.1,1-1.62,1.43l-5.68,4.81.76-7.41c2.84-27.63-2.35-36.81-7.21-39.63-6.15-3.58-16.55-.22-30.91,10l-10.67,7.58,6.3-11.47c25.5-46.43,24.32-64.72,18.85-71.9-8.49-11.13-33.72-5.09-50.41-1.09a133.93,133.93,0,0,1-14.27,2.95l-9.37,1Z" transform="translate(-176.61 -101.47)"/></svg>