<svg xmlns="http://www.w3.org/2000/svg" viewBox="0 0 800 636"><defs><style>.cls-1{fill:none;}.cls-2{fill:#ff00b4;}.cls-3{fill:#fff8b9;}</style></defs><title>stars-2</title><g id="_2" data-name="2"><path class="cls-1" d="M196.69,498.84a27.55,27.55,0,1,0,19.45,8A27.39,27.39,0,0,0,196.69,498.84Z"/><path class="cls-1" d="M95.11,273.07a27.65,27.65,0,0,0-25.06-16,27.55,27.55,0,0,0-25,39.06A27.65,27.65,0,0,0,70.1,312.13a27.56,27.56,0,0,0,25-39.06Z"/><path class="cls-1" d="M410.1,312a27.55,27.55,0,1,0-.5,39A27.36,27.36,0,0,0,410.1,312Z"/><path class="cls-2" d="M428.37,357a45.9,45.9,0,1,0-76.52-.8L221.91,488a46,46,0,0,0-47.7-1.66l-77-164.8a46.12,46.12,0,1,0-16.67,7.67L159.86,499a45.9,45.9,0,1,0,75.06,2L364.69,369.29a46,46,0,0,0,50.55.52ZM45,296.08a27.57,27.57,0,0,1,25-39.06A27.55,27.55,0,0,1,81.59,309.6a27.35,27.35,0,0,1-11.49,2.53A27.65,27.65,0,0,1,45,296.08ZM216.22,545.83a27.55,27.55,0,1,1-.07-39A27.38,27.38,0,0,1,216.22,545.83ZM370.63,350.46a27.57,27.57,0,1,1,19.73,8.32A27.57,27.57,0,0,1,370.63,350.46Z"/><path class="cls-2" d="M127.07,42.49h15v15a9.18,9.18,0,0,0,18.35,0v-15h15a9.17,9.17,0,1,0,0-18.34h-15v-15a9.18,9.18,0,0,0-18.35,0v15h-15a9.17,9.17,0,1,0,0,18.34Z"/><path class="cls-2" d="M741.5,545.62h-15v-15a9.18,9.18,0,0,0-18.35,0v15h-15a9.17,9.17,0,1,0,0,18.34h15v15a9.18,9.18,0,0,0,18.35,0V564h15a9.17,9.17,0,1,0,0-18.34Z"/><ellipse class="cls-2" cx="502.89" cy="242.72" rx="17.67" ry="17.66"/><ellipse class="cls-2" cx="561.6" cy="179.74" rx="18.37" ry="18.36"/><ellipse class="cls-2" cx="607.2" cy="282.89" rx="35.06" ry="35.04"/><ellipse class="cls-2" cx="377.21" cy="502.82" rx="13.15" ry="13.15"/><ellipse class="cls-2" cx="353.57" cy="604.66" rx="31.35" ry="31.34"/><ellipse class="cls-2" cx="454.99" cy="620.33" rx="15.68" ry="15.67"/><circle class="cls-3" cx="5" cy="5" r="5"/><circle class="cls-3" cx="795" cy="5" r="5"/><circle class="cls-3" cx="5" cy="631" r="5"/><circle class="cls-3" cx="795" cy="631" r="5"/></g></svg>