<svg xmlns="http://www.w3.org/2000/svg" viewBox="0 0 800 636"><defs><style>.cls-1{fill:#00ff9c;}.cls-2{fill:#fff8b9;}</style></defs><title>stars-4</title><g id="_4" data-name="4"><path class="cls-1" d="M790.21,298A45.91,45.91,0,0,0,713,346.9L572.94,457.39a45.94,45.94,0,0,0-51.07-5.65L428.37,357a45.9,45.9,0,1,0-76.52-.8L221.91,488a46,46,0,0,0-47.7-1.66l-77-164.8a46.12,46.12,0,1,0-16.67,7.67L159.86,499a45.9,45.9,0,1,0,75.06,2L364.69,369.29a46,46,0,0,0,50.55.52l92.38,93.61a45.88,45.88,0,0,0,35.64,74.84,45.9,45.9,0,0,0,41-66.45L724.37,361.32A45.89,45.89,0,0,0,790.21,298ZM45,296.08a27.57,27.57,0,0,1,25-39.06A27.55,27.55,0,0,1,81.59,309.6a27.35,27.35,0,0,1-11.49,2.53A27.65,27.65,0,0,1,45,296.08ZM216.22,545.83a27.55,27.55,0,1,1-.07-39A27.38,27.38,0,0,1,216.22,545.83ZM370.63,350.46a27.57,27.57,0,1,1,19.73,8.32A27.57,27.57,0,0,1,370.63,350.46Zm200,145.22a27.56,27.56,0,1,1-5.68-20.31A27.35,27.35,0,0,1,570.6,495.68Zm210.85-166a27.55,27.55,0,1,1-5.68-20.31A27.34,27.34,0,0,1,781.44,329.65Z"/><path class="cls-1" d="M127.07,42.49h15v15a9.18,9.18,0,0,0,18.35,0v-15h15a9.17,9.17,0,1,0,0-18.34h-15v-15a9.18,9.18,0,0,0-18.35,0v15h-15a9.17,9.17,0,1,0,0,18.34Z"/><path class="cls-1" d="M669,129.44h15v15a9.18,9.18,0,0,0,18.35,0v-15h15a9.17,9.17,0,1,0,0-18.34h-15v-15a9.18,9.18,0,0,0-18.35,0v15H669a9.17,9.17,0,1,0,0,18.34Z"/><path class="cls-1" d="M57.48,459.85h-15v-15a9.18,9.18,0,0,0-18.35,0v15h-15a9.17,9.17,0,1,0,0,18.34h15v15a9.18,9.18,0,0,0,18.35,0v-15h15a9.17,9.17,0,1,0,0-18.34Z"/><path class="cls-1" d="M741.5,545.62h-15v-15a9.18,9.18,0,0,0-18.35,0v15h-15a9.17,9.17,0,1,0,0,18.34h15v15a9.18,9.18,0,0,0,18.35,0V564h15a9.17,9.17,0,1,0,0-18.34Z"/><path class="cls-1" d="M269.19,170.56h15v15a9.18,9.18,0,0,0,18.35,0v-15h15a9.17,9.17,0,1,0,0-18.34h-15v-15a9.18,9.18,0,0,0-18.35,0v15h-15a9.17,9.17,0,1,0,0,18.34Z"/><ellipse class="cls-1" cx="502.89" cy="242.72" rx="17.67" ry="17.66"/><ellipse class="cls-1" cx="561.6" cy="179.74" rx="18.37" ry="18.36"/><ellipse class="cls-1" cx="607.2" cy="282.89" rx="35.06" ry="35.04"/><ellipse class="cls-1" cx="377.21" cy="502.82" rx="13.15" ry="13.15"/><ellipse class="cls-1" cx="353.57" cy="604.66" rx="31.35" ry="31.34"/><ellipse class="cls-1" cx="454.99" cy="620.33" rx="15.68" ry="15.67"/><circle class="cls-2" cx="5" cy="5" r="5"/><circle class="cls-2" cx="795" cy="5" r="5"/><circle class="cls-2" cx="5" cy="631" r="5"/><circle class="cls-2" cx="795" cy="631" r="5"/></g></svg>