<svg xmlns="http://www.w3.org/2000/svg" viewBox="0 0 800 636"><defs><style>.cls-1{fill:#09f;}.cls-2{fill:#fff8b9;}</style></defs><title>stars-1</title><g id="_1" data-name="1"><path class="cls-1" d="M159.86,499a45.9,45.9,0,1,0,75.06,2L364.69,369.29a46,46,0,0,0,50.55.52l92.38,93.61a45.88,45.88,0,0,0,35.64,74.84,45.9,45.9,0,0,0,41-66.45l-11.35-14.42a45.94,45.94,0,0,0-51.07-5.65L428.37,357a45.9,45.9,0,1,0-76.52-.8L221.91,488a46,46,0,0,0-47.7-1.66Zm56.36,46.84a27.55,27.55,0,1,1-.07-39A27.38,27.38,0,0,1,216.22,545.83ZM370.63,350.46a27.57,27.57,0,1,1,19.73,8.32A27.57,27.57,0,0,1,370.63,350.46Zm200,145.22a27.56,27.56,0,1,1-5.68-20.31A27.35,27.35,0,0,1,570.6,495.68Z"/><path class="cls-1" d="M669,129.44h15v15a9.18,9.18,0,0,0,18.35,0v-15h15a9.17,9.17,0,1,0,0-18.34h-15v-15a9.18,9.18,0,0,0-18.35,0v15H669a9.17,9.17,0,1,0,0,18.34Z"/><path class="cls-1" d="M57.48,459.85h-15v-15a9.18,9.18,0,0,0-18.35,0v15h-15a9.17,9.17,0,1,0,0,18.34h15v15a9.18,9.18,0,0,0,18.35,0v-15h15a9.17,9.17,0,1,0,0-18.34Z"/><path class="cls-1" d="M269.19,170.56h15v15a9.18,9.18,0,0,0,18.35,0v-15h15a9.17,9.17,0,1,0,0-18.34h-15v-15a9.18,9.18,0,0,0-18.35,0v15h-15a9.17,9.17,0,1,0,0,18.34Z"/><circle class="cls-2" cx="5" cy="5" r="5"/><circle class="cls-2" cx="795" cy="5" r="5"/><circle class="cls-2" cx="5" cy="631" r="5"/><circle class="cls-2" cx="795" cy="631" r="5"/></g></svg>