<svg xmlns="http://www.w3.org/2000/svg" xmlns:xlink="http://www.w3.org/1999/xlink" viewBox="0 0 600 600"><defs><style>.cls-1{fill:#fff;}.cls-2{fill:url(#linear-gradient);}</style><linearGradient id="linear-gradient" y1="300" x2="600" y2="300" gradientUnits="userSpaceOnUse"><stop offset="0" stop-color="#fff" stop-opacity="0.3"/><stop offset="1" stop-color="#fff" stop-opacity="0.3"/></linearGradient></defs><title>sweater</title><g id="Icon"><path class="cls-1" d="M206.65,211.2l-.11.05-.07,0-.15.12C206.24,211.54,206.34,211.58,206.65,211.2Zm21.87,58.71c.42.34,0-.33,0,0Zm10.13,130.94V401S238.61,400.28,238.65,400.85ZM370.07,271.58v0l-.06.17Zm.52-1.63s0,0,0,0C370.43,270.43,370.49,270.26,370.59,270Zm23.09-58.55c-.12,0-.32-.22-.43-.28L393,211a1.12,1.12,0,0,0,.64.39Zm53.92,190.25c4.78-15.8-.13-32.89-3.69-48.43-2.92-12.76-4.74-25.78-6.91-38.68s-4.35-26.08-8.38-38.7c-6.22-19.52-12.55-39.24-20.56-58.11a92.77,92.77,0,0,0-5-10.43,4.48,4.48,0,0,0-.25-2.19c-1.26-3.26-4.07-4.55-7-6-3.82-1.91-7.69-3.71-11.57-5.5-5.25-2.43-10.49-4.75-15.89-6.81-4.25-1.62-8.85-4-13.68-5.84-1.56-.6-3.16-1.24-4.76-1.78a9.65,9.65,0,0,1-2.5-2.44c-1.6-2.24-4.17-3.3-6.7-4.19-2.12-.74-4.27-1.5-6.42-2.15-5.07-1.54-10.62-1.83-15.89-2.1s-10.29-.62-15.44-.74a154.08,154.08,0,0,0-15.55.7,152.93,152.93,0,0,0-15.59,1.59c-4.46.81-8.88,1.78-12.85,4.07a45.63,45.63,0,0,0-5.16,3.64c-.46.36-.86.69-1.21,1h-.37a26.46,26.46,0,0,0-5.27,1.79c-2.31.83-4.55,1.83-6.79,2.83l-3.35,1.48c-1.33.59-2.17,1-3.06,1.32-9.62,3.75-19,7.93-28.28,12.48-3.28,1.61-6.86,3-8.27,6.65a4.48,4.48,0,0,0-.25,2.17c-4.52,7.64-7.38,16.3-10.57,24.53-3.74,9.65-6.91,19.55-10.19,29.36-2.69,8-5.66,16.08-7.66,24.33-1.47,6.06-2.6,12.21-3.7,18.36-2.47,13.87-4.52,27.82-7.16,41.67-3.06,16-8.71,31.79-6.71,48.35a53.41,53.41,0,0,0,1.47,7.71,21.18,21.18,0,0,0-1.92,14.27c1.59,6.29,6.89,11.28,12.71,13.78,5.43,2.33,12.33,2.81,17.76.16,5.61-2.74,8.29-9.15,8.79-15.13,6.77-4.65,11.48-11.29,14.74-19,8.63-20.41,12.94-42.85,17-64.54l.22-1.23q.84,14,1.69,28.06c.64,10.68-1,24.37,5.8,33.1-.09,1.22-.2,2.43-.29,3.64A39,39,0,0,0,229,403c1.28,9,13.17,9.61,20.18,11.06,15.29,3.18,30.55,3.8,46.08,4.08,3.35.06,6.7.11,10,.09a43.81,43.81,0,0,0,5.22-.19h0c4.29-.11,8.59-.14,12.87-.36a175.46,175.46,0,0,0,28.57-3.9c7.09-1.56,17.18-2.48,18.18-11.44a40.22,40.22,0,0,0,.05-7.69c-.08-1-.2-2.31-.29-3.3,5.8-7.46,4.94-19,5.39-27.88.63-12.56,1.45-25.11,2.21-37.66,3.76,21.33,8.05,42.94,15.41,63.32,2.87,8,6.11,15.8,12.52,21.57a50.61,50.61,0,0,0,4.75,3.8c.47,6,3.15,12.51,8.8,15.26,5.43,2.64,12.33,2.18,17.76-.16,5.85-2.51,11.08-7.47,12.71-13.78A21,21,0,0,0,447.61,401.66Zm-56.1-193.12-.12-.27ZM263.1,181.46c3.65-1.5,7.82-1.28,11.69-1.32,9.55-.1,19.17-.72,28.71-.09,9.1.6,18.55.27,27.45,2.44,3,.72,6.19.93,8.88,2.44-1.66,1.93-3.32,3.84-4.93,5.81-2.94,3.59-5.6,7.39-8.66,10.88a45.28,45.28,0,0,1-8.34,7.26c-3.28,2.28-6.39,4.88-9.84,6.9-2.82,1.65-6.21,3.17-9.57,2.72-3.12-.41-6-2.12-8.52-3.85a109.31,109.31,0,0,1-16.56-14.27c-3.37-3.48-6.47-7.19-9.71-10.77-1.43-1.58-3.88-3.2-4.88-5.07a2.29,2.29,0,0,1-.22-.61A44.62,44.62,0,0,1,263.1,181.46ZM170.2,420.3a16.36,16.36,0,0,1-5.16-1.86,20.35,20.35,0,0,0,10,1.76A11.7,11.7,0,0,1,170.2,420.3Zm24.17-28.46Zm44.46,9.8a.39.39,0,0,1-.09-.19C238.94,401.65,239.07,401.78,238.84,401.64Zm121.5-.72h0s0-.5,0,0a7.92,7.92,0,0,1-.71.42c-1.55.71-3.52.73-5.17,1-2.25.36-4.51.68-6.77,1-8.62,1.15-17.18,2.37-25.87,2.75-3.73.16-7.48.21-11.21.31-3.4.1-7.64-.65-11,.16h-1.14c-5.45-.09-10.9-.27-16.36-.36a203.44,203.44,0,0,1-23.49-1.75c-4.68-.62-9.34-1.22-14-2a23.05,23.05,0,0,1-5.16-1c-.09,0-.49-.27-.78-.45h0a1.28,1.28,0,0,1,0-.29c0-.38-.08-.77-.11-1.15-.06-.67-.08-1.34-.14-2,8.4,3.05,18.76,1.81,27.27,1.81,6.9,0,13.8,0,20.69.23a7.52,7.52,0,0,0,1.34.25c16.58,1.5,33.43-.16,50-.42,7.25-.12,15.72.65,22.91-1.7,0,.33,0,.64-.06.93,0,.6-.09,1.2-.16,1.8A3.6,3.6,0,0,1,360.33,400.92Zm.16-.1c0-.11.1-.17.16-.13S360.59,400.74,360.49,400.81Zm4.19-68.52c-.56,9.53-1.15,19.07-1.69,28.6-.36,6.37.09,12.92-1.41,19.16-.84,3.51-2.38,5.54-6.07,6.64-4.53,1.35-9.53.93-14.21.94-13,0-26.09,1.18-39.13,1.2a7,7,0,0,0-.87-.12c-10-.71-20.09-.94-30.14-1q-7.29-.06-14.58,0c-4.34,0-8.82.21-13-.93-3.45-.93-4.82-2.29-5.75-5.49-1.33-4.58-1.32-9.32-1.44-14-.08-3-.26-6.06-.44-9.09q-1.2-20.42-2.42-40.83a31.12,31.12,0,0,0,4-2.18,110.68,110.68,0,0,1,12.36-6.66c3.3-1.47,5.32-.17,7.88,2.11,2.15,1.91,4.34,3.77,6.49,5.68,2.37,2.1,4.64,4.71,7.83,5.51,2.67.67,5.28-.47,7.6-1.68,4.56-2.39,8.68-5.63,12.94-8.51,1.54-1,3.27-1.91,4.8-3,.44,0,1-.12,1.41-.09.27,0,.43.41.68.45l.32.26c4.19,3.4,8.26,6.94,12.43,10.36,2.9,2.38,5.85,4.41,9.83,3.58,3.28-.68,5.76-2.92,8.47-4.74,2.47-1.66,5-3.3,7.49-4.89,1.23-.77,2.46-1.54,3.71-2.26l1.26-.71a4,4,0,0,0,.39-.25l.39-.12c.66-.21,2-.19,2.57-.41.72.45,1.45.87,2.17,1.33,2.34,1.51,4.63,3.12,6.9,4.73q3.67,2.61,7.29,5.27l2.51,1.85Q365,327.62,364.68,332.3Zm-91.58-22.05h0C272.78,310.47,272.89,310.37,273.09,310.25Zm.08,0a1.66,1.66,0,0,1,.25-.12l-.22.12Zm2.23.34c.22.16.34.33,0,0Zm21.81-2c-.25,0-.32,0,0,0Zm22.58,3.06c0-.3.15-.37.38-.33C320,311.45,319.8,311.58,319.8,311.62Zm1.9.55Zm23.92-2.82a2.86,2.86,0,0,1,.36.18C345.72,309.52,345.51,309.49,345.61,309.35ZM367,293.41q-.47,7.68-.94,15.36l-2.62-1.82c-3.77-2.62-7.58-5.63-11.7-7.69-6.82-3.4-13.59.28-19.36,3.93q-3.92,2.48-7.77,5.08c-1,.69-2,1.39-3,2.12-.11.08-.69.43-1.16.74-3.82-3.23-7.65-6.45-11.53-9.61-2.62-2.13-5-4.15-8.5-4.61a15,15,0,0,0-9.28,1.69c-4.45,2.4-8.46,5.68-12.67,8.46-1.07.71-2.15,1.41-3.26,2.06l-.8.46c-.85-.75-1.81-1.41-2.69-2.07-1.37-1-2.77-2.05-4.16-3.07l-2.11-1.56-.68-.52c-.73-.56.55.42,0,0-4.44-3.52-9.15-6.28-15-5-5.12,1.1-10.11,4.69-14.33,7.64-.88.61-1.71,1.24-2.52,1.87-.25-4.1-.49-8.21-.75-12.31-.18-2.91-.43-5.81-.71-8.7a31.27,31.27,0,0,0,5.75-2.87c4.12-2.43,8.41-4.92,12.76-6.93,3.35-1.55,5.49,0,8,2.28,2.2,2,4.51,3.89,6.73,5.88,2.58,2.31,5.27,5.25,9,5.33,2.36.05,4.63-1.1,6.63-2.22,4.71-2.62,9-6,13.48-9,.86-.57,1.72-1.14,2.61-1.66.3-.18.68-.33,1-.54.45.05,1-.12,1.47-.09a.55.55,0,0,1,.31.19s.09,0,.37.26l.14.11,1.58,1.28c4.15,3.41,8.17,7,12.38,10.32a10.38,10.38,0,0,0,12.89.63c2.33-1.53,4.56-3.21,6.89-4.74,2.6-1.71,5.21-3.42,7.9-5,.45-.26.89-.52,1.35-.77l.65-.35.52-.23c.57-.18,1.4-.31,2-.55a.64.64,0,0,1,.38.06c1.53,1.08,3.44,1.88,5,2.85,2.61,1.6,5.19,3.25,7.75,4.92q3.56,2.31,7.09,4.66l1.23.84C367.17,291.47,367.09,292.44,367,293.41Zm-93.57-15.78-.05,0a4.6,4.6,0,0,0-.43.18C272.79,277.85,273,277.61,273.46,277.63Zm1.93.49c.13.12.15.22,0,0ZM429.8,420.3a12.64,12.64,0,0,1-4.33,0,21,21,0,0,0,3.87-.18,18.6,18.6,0,0,0,5.59-1.7A16.36,16.36,0,0,1,429.8,420.3ZM434,405.73c-4.54,5.94-11.7,3.9-17.07.33-2.63-1.75-4.64-4-6.93-6.13h0l-.42-.59c-.42-.62-.81-1.26-1.19-1.91-.84-1.46-1.59-3-2.28-4.51l-.5-1.14c0-.08,0,0,0,0l-.12-.31c-.4-1-.79-2-1.17-3-7.59-20.16-11.73-41.81-15.63-62.94-2-10.65-4-21.28-5.89-31.94-.75-4.18-1.47-8.37-2.1-12.57q-.2-1.3-.38-2.61l-.12-.85c-.06-.47-.06-.48-.1-1-.12-1.34-.23-2.67-.3-4-.06-1-.1-2-.09-3.05.07-4.3-5.45-5-7.4-2.21a2.71,2.71,0,0,0-1.72,2.57l.08-.24,0,.17,0,.09s0,0,0,0c-.16.57-.28,1.18-.46,1.71,0-.07,0-1,0-.41a2.11,2.11,0,0,1,0,.31l.07-.2-.08.22c-.06.25-.13.39-.05.15a27.46,27.46,0,0,0-1.3,5.27c-1.18-.72-2.36-1.42-3.51-2.15-4.19-2.62-8.37-5.41-12.76-7.7-6.48-3.37-12.9-.83-18.64,2.71-2.77,1.71-5.5,3.5-8.21,5.31-.91.6-1.82,1.2-2.71,1.83-.66.47-1.29,1-2,1.43l-.47.28-.64-.53-3.16-2.65c-2.37-2-4.73-4-7.12-6s-4.56-4-7.48-4.84a14.75,14.75,0,0,0-10.47,1.16c-4.56,2.3-8.64,5.72-12.88,8.54-1.08.72-2.17,1.43-3.29,2.1l-.93.54c-.89-.78-2.13-1.56-2.76-2-1.37-1-2.77-2.05-4.16-3.08l-2.1-1.56c-.68-.51,0,0-.83-.65-4.53-3.55-9.42-6.27-15.36-4.79-5.06,1.26-10.09,4.79-14.31,7.75-1.63,1.14-3.19,2.28-4.65,3.51l-.06-.45a11.9,11.9,0,0,0-.22-1.69c-.15-.54-.75-1.87-.24-.57-.14-.36-.29-.71-.42-1.07-.27-.75-.51-1.52-.78-2.27a1.32,1.32,0,0,1-.07-.26l0,0a2.52,2.52,0,0,0-.22-1.11c-.85-4.37-8.06-4.13-8,.8a68.84,68.84,0,0,1-.39,7.07v.16s-.09.78-.12,1l-.06.47q-.2,1.4-.41,2.8-.46,3-1,6c-1.67,10-3.76,19.88-5.49,29.84-3.79,21.9-8,44-15,65.21-.7,2.13-1.43,4.25-2.22,6.35q-.52,1.39-1.08,2.77l-.18.43c-.2.46-.4.93-.61,1.39-.67,1.47-1.39,2.92-2.2,4.32-.35.61-.71,1.2-1.1,1.78-.16.24-.34.47-.5.72h0c-4.7,4.33-9.88,10-16.9,9.69-6.34-.25-9.31-6.65-10.66-12-3.89-15.36,1.7-30.69,4.72-45.65,2.58-12.77,4.44-25.67,6.6-38.51A280.26,280.26,0,0,1,182.22,276c2.92-9.33,5.86-18.65,8.92-27.94s5.71-18.4,8.85-27.49c.92-2.67,1.91-5.3,2.81-8a5.49,5.49,0,0,0,3.53-1.19.51.51,0,0,1,.15-.12l.33-.29,0,0-.12.16c.4-.19.79-.48,1.18-.69,1.24-.68,2.5-1.31,3.77-1.94,3.9-1.94,7.85-3.79,11.8-5.64,4.73-2.21,9.36-4.51,14-7,4.14-2.22,8.58-3.85,12.67-6.15l2.56-1.41a37.12,37.12,0,0,0,3.91,6.75,119.45,119.45,0,0,0,19.91,23.09c6.66,6,14.94,12.7,24.51,12a31.69,31.69,0,0,0,15.14-5.67c4.19-2.81,8.37-5.9,12.35-9,4.71-3.7,8.35-8.25,12-13,3.22-4.2,7.32-8,10.29-12.43,3.36,1.74,6.84,3.21,10.23,4.89,4.68,2.32,9.2,4.86,13.94,7.07C379,204,383.09,206,387.17,208c1.53.75,3.06,1.5,4.56,2.31.44.24.88.51,1.32.75a7.81,7.81,0,0,1-1.09-1.59,7,7,0,0,0,1.72,2h0a5.55,5.55,0,0,0,3.52,1.19c.91,2.66,1.89,5.29,2.82,8,1.52,4.39,2.79,8.85,4.17,13.28,3,9.53,6.26,18.95,9.29,28.45,2.58,8.08,5.46,16.17,7.55,24.39,1.4,5.49,2.45,11.08,3.46,16.65,2.43,13.43,4.42,26.94,6.81,40.37,2.56,14.4,7.72,28.68,7.52,43.42C438.74,393.34,437.92,400.63,434,405.73ZM345.77,207.82c-5,.89-9.13,5.35-12.83,8.58s-7.31,6.92-11.32,9.87c-7.14,5.24-15.13,10.7-24.38,10s-16-6.77-22.38-12.72c-4-3.67-8-7.27-12-10.88-1.79-1.6-3.56-3.16-5.47-4.6s-4.74-2.88-6.33-4.85c-1.14-1.41-2.95.39-2.32,1.79.9,2,1.07,4.37,1.93,6.45A20.89,20.89,0,0,0,254,217c3,3.56,6.16,7,9.25,10.51,5.65,6.36,12.06,13.26,19.89,16.9a36,36,0,0,0,24.89,2.46c8.27-2.32,15.72-7.35,22.38-12.64a123,123,0,0,0,11.36-10.49c3.49-3.58,7.42-7.82,7.76-13.06C349.7,208.6,347.55,207.5,345.77,207.82ZM299.3,276.38l-.16-.15A.61.61,0,0,0,299.3,276.38Z"/><path class="cls-2" d="M300,60a240.08,240.08,0,0,1,93.4,461.16A240.08,240.08,0,0,1,206.6,78.84,238.44,238.44,0,0,1,300,60m0-60C134.31,0,0,134.31,0,300S134.31,600,300,600,600,465.69,600,300,465.69,0,300,0Z"/></g></svg>